<svg xmlns="http://www.w3.org/2000/svg" viewBox="0 0 1600 400"><path fill="#adc4d1" d="M277.515 114.781h125.651v263.631H277.515zM1220.533 84.945h176.153v244.333h-176.153z"/><path fill="#e52526" d="M1460.155 311.109h126.292v87.306h-126.292zM332.03 192.167h140.488v197.459H332.03z"/><path fill="#adc4d1" d="M992.04 96.89h129.699v286.64H992.04z"/><path fill="#ab212f" d="M340.341 212.615l58.115.031 84.685 108.818H307.772z"/><path fill="#adc4d1" d="M517.887 65.225h105.911v286.639H517.887z"/><path fill="#44788c" d="M272.323 212.615h126.295v185.8H272.323z"/><path opacity=".4" fill="#123851" d="M202.296 152.051l97.593.05 142.212 182.74H147.604z"/><path fill="#18476c" d="M168.973 151.764l.401.262h-.805v246.389h131.333V152.026z"/><path fill="#e52526" d="M926.374 212.248h92.597v186.167h-92.597z"/><path fill="#215b80" d="M707.32 84.945h147.37v305.278H707.32z"/><path fill="#ab212f" d="M878.16 212.248l58.114.028 84.684 108.82H845.592z"/><path fill="#84aaba" d="M1381.011 135.811h129.6v200.785h-129.6z"/><path fill="#44788c" d="M1394.33 176.456h102.96v3.754h-102.96zM1394.33 185.355h102.96v3.756h-102.96zM1394.33 195.553h102.96v3.756h-102.96zM1394.33 204.448h102.96v3.762h-102.96zM1394.33 214.529h102.96v3.752h-102.96zM1394.33 223.427h102.96v3.75h-102.96zM1394.33 232.563h102.96v3.754h-102.96zM1394.33 241.464h102.96v3.754h-102.96zM1394.33 251.535h102.96v3.754h-102.96zM1394.33 260.435h102.96v3.754h-102.96zM1394.33 148.671h102.96v3.754h-102.96zM1394.33 157.57h102.96v3.757h-102.96zM1394.33 279.211h102.96v3.756h-102.96zM1394.33 288.116h102.96v3.754h-102.96zM1394.33 298.321h102.96v3.754h-102.96zM1394.33 307.221h102.96v3.748h-102.96zM1394.33 317.292h102.96v3.75h-102.96zM1394.33 326.184h102.96v3.762h-102.96z"/><path fill="#fffaff" d="M1394.33 166.038h102.96v3.754h-102.96z"/><path fill="#44788c" d="M491.499 160.452l58.115.029 84.685 108.82H458.93z"/><path fill="#215b80" d="M549.63 188.109v-27.657H445.3v27.657h-11.302v200.298h126.929V188.109z"/><path fill="#123851" d="M438.736 191.341h5.929v7.024h-5.929zM449.684 191.341h5.929v7.024h-5.929zM460.856 191.341h5.929v7.024h-5.929zM471.805 191.341h5.928v7.024h-5.928z"/><path fill="#fffaff" d="M483.668 191.341h5.928v7.024h-5.928z"/><path fill="#123851" d="M494.612 191.341h5.934v7.024h-5.934zM505.789 191.341h5.926v7.024h-5.926zM516.734 191.341h5.93v7.024h-5.93zM438.736 200.56h5.929v7.02h-5.929zM449.684 200.56h5.929v7.02h-5.929zM460.856 200.56h5.929v7.02h-5.929z"/><path fill="#e52526" d="M471.805 200.56h5.928v7.02h-5.928z"/><path fill="#123851" d="M483.668 200.56h5.928v7.02h-5.928zM494.612 200.56h5.934v7.02h-5.934zM505.789 200.56h5.926v7.02h-5.926zM516.734 200.56h5.93v7.02h-5.93z"/><path fill="#fffaff" d="M528.141 191.341h5.927v7.024h-5.927z"/><path fill="#123851" d="M539.087 191.341h5.927v7.024h-5.927zM550.265 191.341h5.93v7.024h-5.93z"/><path fill="#fffaff" d="M528.141 200.56h5.927v7.02h-5.927z"/><path fill="#123851" d="M539.087 200.56h5.927v7.02h-5.927zM550.265 200.56h5.93v7.02h-5.93zM438.736 209.91h5.929v7.024h-5.929zM449.684 209.91h5.929v7.024h-5.929zM460.856 209.91h5.929v7.024h-5.929zM471.805 209.91h5.928v7.024h-5.928zM483.668 209.91h5.928v7.024h-5.928zM494.612 209.91h5.934v7.024h-5.934zM505.789 209.91h5.926v7.024h-5.926zM516.734 209.91h5.93v7.024h-5.93zM438.736 219.125h5.929v7.024h-5.929zM449.684 219.125h5.929v7.024h-5.929zM460.856 219.125h5.929v7.024h-5.929zM471.805 219.125h5.928v7.024h-5.928zM483.668 219.125h5.928v7.024h-5.928zM494.612 219.125h5.934v7.024h-5.934z"/><path fill="#fffaff" d="M505.789 219.125h5.926v7.024h-5.926z"/><path fill="#123851" d="M516.734 219.125h5.93v7.024h-5.93zM528.141 209.91h5.927v7.024h-5.927zM539.087 209.91h5.927v7.024h-5.927zM449.684 163.575h5.929v7.024h-5.929zM460.856 163.575h5.929v7.024h-5.929zM471.805 163.575h5.928v7.024h-5.928zM483.668 163.575h5.928v7.024h-5.928zM494.612 163.575h5.934v7.024h-5.934zM505.789 163.575h5.926v7.024h-5.926zM516.734 163.575h5.93v7.024h-5.93zM449.684 172.79h5.929v7.024h-5.929zM460.856 172.79h5.929v7.024h-5.929z"/><path fill="#fffaff" d="M471.805 172.79h5.928v7.024h-5.928z"/><path fill="#123851" d="M483.668 172.79h5.928v7.024h-5.928zM494.612 172.79h5.934v7.024h-5.934zM505.789 172.79h5.926v7.024h-5.926zM516.734 172.79h5.93v7.024h-5.93zM528.141 163.575h5.927v7.024h-5.927zM539.087 163.575h5.927v7.024h-5.927zM528.141 172.79h5.927v7.024h-5.927zM539.087 172.79h5.927v7.024h-5.927zM449.684 182.146h5.929v7.02h-5.929zM460.856 182.146h5.929v7.02h-5.929zM471.805 182.146h5.928v7.02h-5.928zM483.668 182.146h5.928v7.02h-5.928zM494.612 182.146h5.934v7.02h-5.934z"/><path fill="#e52526" d="M505.789 182.146h5.926v7.02h-5.926z"/><path fill="#123851" d="M516.734 182.146h5.93v7.02h-5.93zM528.141 182.146h5.927v7.02h-5.927zM539.087 182.146h5.927v7.02h-5.927zM550.265 209.91h5.93v7.024h-5.93zM528.141 219.125h5.927v7.024h-5.927zM539.087 219.125h5.927v7.024h-5.927z"/><path fill="#fffaff" d="M550.265 219.125h5.93v7.024h-5.93z"/><path fill="#123851" d="M438.736 228.481h5.929v7.022h-5.929z"/><path fill="#e52526" d="M449.684 228.481h5.929v7.022h-5.929z"/><path fill="#123851" d="M460.856 228.481h5.929v7.022h-5.929z"/><path fill="#fffaff" d="M471.805 228.481h5.928v7.022h-5.928z"/><path fill="#123851" d="M483.668 228.481h5.928v7.022h-5.928zM494.612 228.481h5.934v7.022h-5.934zM505.789 228.481h5.926v7.022h-5.926zM516.734 228.481h5.93v7.022h-5.93zM438.736 237.696h5.929v7.02h-5.929zM449.684 237.696h5.929v7.02h-5.929z"/><path fill="#fffaff" d="M460.856 237.696h5.929v7.02h-5.929z"/><path fill="#123851" d="M471.805 237.696h5.928v7.02h-5.928zM483.668 237.696h5.928v7.02h-5.928zM494.612 237.696h5.934v7.02h-5.934zM505.789 237.696h5.926v7.02h-5.926zM516.734 237.696h5.93v7.02h-5.93z"/><path fill="#e52526" d="M528.141 228.481h5.927v7.022h-5.927z"/><path fill="#123851" d="M539.087 228.481h5.927v7.022h-5.927zM550.265 228.481h5.93v7.022h-5.93z"/><path fill="#fffaff" d="M528.141 237.696h5.927v7.02h-5.927z"/><path fill="#123851" d="M539.087 237.696h5.927v7.02h-5.927zM550.265 237.696h5.93v7.02h-5.93zM438.736 247.052h5.929v7.02h-5.929zM449.684 247.052h5.929v7.02h-5.929zM460.856 247.052h5.929v7.02h-5.929zM471.805 247.052h5.928v7.02h-5.928zM483.668 247.052h5.928v7.02h-5.928zM494.612 247.052h5.934v7.02h-5.934zM505.789 247.052h5.926v7.02h-5.926zM516.734 247.052h5.93v7.02h-5.93zM438.736 256.265h5.929v7.022h-5.929zM449.684 256.265h5.929v7.022h-5.929zM460.856 256.265h5.929v7.022h-5.929zM471.805 256.265h5.928v7.022h-5.928z"/><path fill="#e52526" d="M483.668 256.265h5.928v7.022h-5.928z"/><path fill="#123851" d="M494.612 256.265h5.934v7.022h-5.934zM505.789 256.265h5.926v7.022h-5.926zM516.734 256.265h5.93v7.022h-5.93zM528.141 247.052h5.927v7.02h-5.927zM539.087 247.052h5.927v7.02h-5.927zM550.265 247.052h5.93v7.02h-5.93z"/><path fill="#e52526" d="M528.141 256.265h5.927v7.022h-5.927z"/><path fill="#fffaff" d="M539.087 256.265h5.927v7.022h-5.927z"/><path fill="#123851" d="M550.265 256.265h5.93v7.022h-5.93zM438.736 265.619h5.929v7.024h-5.929zM449.684 265.619h5.929v7.024h-5.929zM460.856 265.619h5.929v7.024h-5.929zM471.805 265.619h5.928v7.024h-5.928zM483.668 265.619h5.928v7.024h-5.928zM494.612 265.619h5.934v7.024h-5.934zM505.789 265.619h5.926v7.024h-5.926zM516.734 265.619h5.93v7.024h-5.93zM438.736 274.834h5.929v7.024h-5.929z"/><path fill="#fffaff" d="M449.684 274.834h5.929v7.024h-5.929z"/><path fill="#123851" d="M460.856 274.834h5.929v7.024h-5.929zM471.805 274.834h5.928v7.024h-5.928z"/><path fill="#fffaff" d="M483.668 274.834h5.928v7.024h-5.928z"/><path fill="#123851" d="M494.612 274.834h5.934v7.024h-5.934zM505.789 274.834h5.926v7.024h-5.926zM516.734 274.834h5.93v7.024h-5.93z"/><path fill="#fffaff" d="M528.141 265.619h5.927v7.024h-5.927z"/><path fill="#123851" d="M539.087 265.619h5.927v7.024h-5.927zM550.265 265.619h5.93v7.024h-5.93zM528.141 274.834h5.927v7.024h-5.927z"/><path fill="#fffaff" d="M539.087 274.834h5.927v7.024h-5.927z"/><path fill="#123851" d="M550.265 274.834h5.93v7.024h-5.93zM438.736 284.188h5.929v7.024h-5.929zM449.684 284.188h5.929v7.024h-5.929zM460.856 284.188h5.929v7.024h-5.929zM471.805 284.188h5.928v7.024h-5.928z"/><path fill="#e52526" d="M483.668 284.188h5.928v7.024h-5.928z"/><path fill="#123851" d="M494.612 284.188h5.934v7.024h-5.934zM505.789 284.188h5.926v7.024h-5.926zM516.734 284.188h5.93v7.024h-5.93zM438.736 293.401h5.929v7.028h-5.929zM449.684 293.401h5.929v7.028h-5.929z"/><path fill="#fffaff" d="M460.856 293.401h5.929v7.028h-5.929z"/><path fill="#123851" d="M471.805 293.401h5.928v7.028h-5.928zM483.668 293.401h5.928v7.028h-5.928z"/><path fill="#e52526" d="M494.612 293.401h5.934v7.028h-5.934z"/><path fill="#123851" d="M505.789 293.401h5.926v7.028h-5.926zM516.734 293.401h5.93v7.028h-5.93zM528.141 284.188h5.927v7.024h-5.927zM539.087 284.188h5.927v7.024h-5.927zM550.265 284.188h5.93v7.024h-5.93z"/><path fill="#fffaff" d="M528.141 293.401h5.927v7.028h-5.927z"/><path fill="#123851" d="M539.087 293.401h5.927v7.028h-5.927zM550.265 293.401h5.93v7.028h-5.93zM438.736 302.761h5.929v7.02h-5.929zM449.684 302.761h5.929v7.02h-5.929zM460.856 302.761h5.929v7.02h-5.929zM471.805 302.761h5.928v7.02h-5.928zM483.668 302.761h5.928v7.02h-5.928zM494.612 302.761h5.934v7.02h-5.934zM505.789 302.761h5.926v7.02h-5.926zM516.734 302.761h5.93v7.02h-5.93zM438.736 311.974h5.929v7.02h-5.929zM449.684 311.974h5.929v7.02h-5.929zM460.856 311.974h5.929v7.02h-5.929zM471.805 311.974h5.928v7.02h-5.928z"/><path fill="#fffaff" d="M483.668 311.974h5.928v7.02h-5.928z"/><path fill="#123851" d="M494.612 311.974h5.934v7.02h-5.934zM505.789 311.974h5.926v7.02h-5.926zM516.734 311.974h5.93v7.02h-5.93z"/><path fill="#e52526" d="M528.141 302.761h5.927v7.02h-5.927z"/><path fill="#123851" d="M539.087 302.761h5.927v7.02h-5.927zM550.265 302.761h5.93v7.02h-5.93zM528.141 311.974h5.927v7.02h-5.927zM539.087 311.974h5.927v7.02h-5.927zM550.265 311.974h5.93v7.02h-5.93z"/><path fill="#e52526" d="M438.736 321.326h5.929v7.022h-5.929z"/><path fill="#123851" d="M449.684 321.326h5.929v7.022h-5.929z"/><path fill="#fffaff" d="M460.856 321.326h5.929v7.022h-5.929z"/><path fill="#123851" d="M471.805 321.326h5.928v7.022h-5.928zM483.668 321.326h5.928v7.022h-5.928zM494.612 321.326h5.934v7.022h-5.934zM505.789 321.326h5.926v7.022h-5.926zM516.734 321.326h5.93v7.022h-5.93zM438.736 330.543h5.929v7.02h-5.929zM449.684 330.543h5.929v7.02h-5.929zM460.856 330.543h5.929v7.02h-5.929zM471.805 330.543h5.928v7.02h-5.928zM483.668 330.543h5.928v7.02h-5.928z"/><path fill="#e52526" d="M494.612 330.543h5.934v7.02h-5.934zM505.789 330.543h5.926v7.02h-5.926z"/><path fill="#123851" d="M516.734 330.543h5.93v7.02h-5.93zM528.141 321.326h5.927v7.022h-5.927z"/><path fill="#fffaff" d="M539.087 321.326h5.927v7.022h-5.927z"/><path fill="#123851" d="M550.265 321.326h5.93v7.022h-5.93zM528.141 330.543h5.927v7.02h-5.927zM539.087 330.543h5.927v7.02h-5.927zM550.265 330.543h5.93v7.02h-5.93z"/><path fill="#e52526" d="M438.736 340.398h5.929v7.024h-5.929z"/><path fill="#123851" d="M449.684 340.398h5.929v7.024h-5.929zM460.856 340.398h5.929v7.024h-5.929zM471.805 340.398h5.928v7.024h-5.928z"/><path fill="#fffaff" d="M483.668 340.398h5.928v7.024h-5.928z"/><path fill="#123851" d="M494.612 340.398h5.934v7.024h-5.934zM505.789 340.398h5.926v7.024h-5.926zM516.734 340.398h5.93v7.024h-5.93zM438.736 349.616h5.929v7.024h-5.929zM449.684 349.616h5.929v7.024h-5.929z"/><path fill="#fffaff" d="M460.856 349.616h5.929v7.024h-5.929z"/><path fill="#123851" d="M471.805 349.616h5.928v7.024h-5.928zM483.668 349.616h5.928v7.024h-5.928zM494.612 349.616h5.934v7.024h-5.934zM505.789 349.616h5.926v7.024h-5.926z"/><path fill="#e52526" d="M516.734 349.616h5.93v7.024h-5.93z"/><path fill="#123851" d="M528.141 340.398h5.927v7.024h-5.927z"/><path fill="#fffaff" d="M539.087 340.398h5.927v7.024h-5.927z"/><path fill="#123851" d="M550.265 340.398h5.93v7.024h-5.93zM528.141 349.616h5.927v7.024h-5.927z"/><path fill="#fffaff" d="M539.087 349.616h5.927v7.024h-5.927z"/><path fill="#e52526" d="M550.265 349.616h5.93v7.024h-5.93z"/><path fill="#123851" d="M438.736 358.967h5.929v7.024h-5.929zM449.684 358.967h5.929v7.024h-5.929zM460.856 358.967h5.929v7.024h-5.929zM471.805 358.967h5.928v7.024h-5.928zM483.668 358.967h5.928v7.024h-5.928z"/><path fill="#fffaff" d="M494.612 358.967h5.934v7.024h-5.934z"/><path fill="#123851" d="M505.789 358.967h5.926v7.024h-5.926zM516.734 358.967h5.93v7.024h-5.93zM438.736 368.181h5.929v7.026h-5.929zM449.684 368.181h5.929v7.026h-5.929zM460.856 368.181h5.929v7.026h-5.929zM471.805 368.181h5.928v7.026h-5.928zM483.668 368.181h5.928v7.026h-5.928zM494.612 368.181h5.934v7.026h-5.934zM505.789 368.181h5.926v7.026h-5.926zM516.734 368.181h5.93v7.026h-5.93zM528.141 358.967h5.927v7.024h-5.927zM539.087 358.967h5.927v7.024h-5.927zM550.265 358.967h5.93v7.024h-5.93zM528.141 368.181h5.927v7.026h-5.927zM539.087 368.181h5.927v7.026h-5.927zM550.265 368.181h5.93v7.026h-5.93z"/><path fill="#e52526" d="M438.736 377.54h5.929v7.02h-5.929z"/><path fill="#123851" d="M449.684 377.54h5.929v7.02h-5.929zM460.856 377.54h5.929v7.02h-5.929z"/><path fill="#fffaff" d="M471.805 377.54h5.928v7.02h-5.928zM483.668 377.54h5.928v7.02h-5.928z"/><path fill="#123851" d="M494.612 377.54h5.934v7.02h-5.934zM505.789 377.54h5.926v7.02h-5.926z"/><path fill="#e52526" d="M516.734 377.54h5.93v7.02h-5.93z"/><path fill="#123851" d="M528.141 377.54h5.927v7.02h-5.927zM539.087 377.54h5.927v7.02h-5.927zM550.265 377.54h5.93v7.02h-5.93z"/><path fill="#215b80" d="M1038.915 175.325h129.137v131.762h-129.137zM970.406 10.197l-11.291 34.484-5.861 304.525 17.152.223z"/><path fill="#123851" d="M970.406 10.197v339.232h18l-6.628-304.788z"/><path fill="#6692aa" d="M802.306 96.605h133.903v235.267H802.306z"/><path opacity=".6" fill="#123851" d="M644.753 119.694l80.591.069 196.881 252.996H653.232z"/><path opacity=".2" fill="#123851" d="M1202.679 131.652l73.865-9.389 196.882 252.997h-268.993z"/><g><path fill="#44788c" d="M819.452 111.775h6.274v5.296h-6.274zM828.867 111.775h6.276v5.296h-6.276zM837.934 111.775h6.272v5.296h-6.272z"/><path fill="#fffaff" d="M819.452 119.951h6.274v5.292h-6.274zM828.867 119.951h6.276v5.292h-6.276z"/><path fill="#44788c" d="M837.934 119.951h6.272v5.292h-6.272zM819.452 127.649h6.274v5.293h-6.274zM828.867 127.649h6.276v5.293h-6.276zM837.934 127.649h6.272v5.293h-6.272zM819.452 135.83h6.274v5.291h-6.274zM828.867 135.83h6.276v5.291h-6.276z"/><path fill="#e52526" d="M837.934 135.83h6.272v5.291h-6.272z"/><path fill="#44788c" d="M819.452 144.027h6.274v5.293h-6.274z"/><path fill="#fffaff" d="M828.867 144.027h6.276v5.293h-6.276z"/><path fill="#44788c" d="M837.934 144.027h6.272v5.293h-6.272zM819.452 152.207h6.274v5.291h-6.274zM828.867 152.207h6.276v5.291h-6.276zM837.934 152.207h6.272v5.291h-6.272zM819.452 159.901h6.274v5.294h-6.274z"/><path fill="#fffaff" d="M828.867 159.901h6.276v5.294h-6.276z"/><path fill="#44788c" d="M837.934 159.901h6.272v5.294h-6.272zM819.452 168.082h6.274v5.293h-6.274z"/><path fill="#fffaff" d="M828.867 168.082h6.276v5.293h-6.276zM837.934 168.082h6.272v5.293h-6.272z"/><path fill="#44788c" d="M819.452 176.292h6.274v5.293h-6.274zM828.867 176.292h6.276v5.293h-6.276zM837.934 176.292h6.272v5.293h-6.272zM819.452 184.473h6.274v5.289h-6.274zM828.867 184.473h6.276v5.289h-6.276zM837.934 184.473h6.272v5.289h-6.272zM819.452 192.167h6.274v5.295h-6.274z"/><path fill="#fffaff" d="M828.867 192.167h6.276v5.295h-6.276z"/><path fill="#44788c" d="M837.934 192.167h6.272v5.295h-6.272zM819.452 200.345h6.274v5.293h-6.274zM828.867 200.345h6.276v5.293h-6.276zM837.934 200.345h6.272v5.293h-6.272z"/><path fill="#e52526" d="M819.452 208.543h6.274v5.293h-6.274z"/><path fill="#44788c" d="M828.867 208.543h6.276v5.293h-6.276zM837.934 208.543h6.272v5.293h-6.272zM819.452 216.72h6.274v5.297h-6.274zM828.867 216.72h6.276v5.297h-6.276zM837.934 216.72h6.272v5.297h-6.272zM819.452 224.422h6.274v5.289h-6.274z"/><path fill="#fffaff" d="M828.867 224.422h6.276v5.289h-6.276z"/><path fill="#44788c" d="M837.934 224.422h6.272v5.289h-6.272zM819.452 232.596h6.274v5.297h-6.274zM828.867 232.596h6.276v5.297h-6.276zM837.934 232.596h6.272v5.297h-6.272zM819.452 240.209h6.274v5.295h-6.274zM828.867 240.209h6.276v5.295h-6.276zM837.934 240.209h6.272v5.295h-6.272zM819.452 248.386h6.274v5.293h-6.274z"/><path fill="#fffaff" d="M828.867 248.386h6.276v5.293h-6.276z"/><path fill="#44788c" d="M837.934 248.386h6.272v5.293h-6.272zM819.452 256.598h6.274v5.293h-6.274zM828.867 256.598h6.276v5.293h-6.276zM837.934 256.598h6.272v5.293h-6.272zM819.452 264.778h6.274v5.293h-6.274z"/><path fill="#fffaff" d="M828.867 264.778h6.276v5.293h-6.276z"/><path fill="#44788c" d="M837.934 264.778h6.272v5.293h-6.272zM819.452 272.476h6.274v5.287h-6.274zM828.867 272.476h6.276v5.287h-6.276zM837.934 272.476h6.272v5.287h-6.272zM819.452 280.651h6.274v5.293h-6.274zM828.867 280.651h6.276v5.293h-6.276z"/><path fill="#fffaff" d="M837.934 280.651h6.272v5.293h-6.272z"/><path fill="#44788c" d="M819.452 288.851h6.274v5.293h-6.274zM828.867 288.851h6.276v5.293h-6.276zM837.934 288.851h6.272v5.293h-6.272zM856.442 111.775h6.276v5.296h-6.276zM865.851 111.775h6.28v5.296h-6.28zM874.925 111.775h6.272v5.296h-6.272zM856.442 119.951h6.276v5.292h-6.276zM865.851 119.951h6.28v5.292h-6.28zM874.925 119.951h6.272v5.292h-6.272zM856.442 127.649h6.276v5.293h-6.276z"/><path fill="#fffaff" d="M865.851 127.649h6.28v5.293h-6.28z"/><path fill="#44788c" d="M874.925 127.649h6.272v5.293h-6.272zM856.442 135.83h6.276v5.291h-6.276zM865.851 135.83h6.28v5.291h-6.28zM874.925 135.83h6.272v5.291h-6.272zM856.442 144.027h6.276v5.293h-6.276z"/><path fill="#fffaff" d="M865.851 144.027h6.28v5.293h-6.28z"/><path fill="#44788c" d="M874.925 144.027h6.272v5.293h-6.272zM856.442 152.207h6.276v5.291h-6.276zM865.851 152.207h6.28v5.291h-6.28zM874.925 152.207h6.272v5.291h-6.272zM856.442 159.901h6.276v5.294h-6.276z"/><path fill="#fffaff" d="M865.851 159.901h6.28v5.294h-6.28z"/><path fill="#44788c" d="M874.925 159.901h6.272v5.294h-6.272zM856.442 168.082h6.276v5.293h-6.276zM865.851 168.082h6.28v5.293h-6.28z"/><path fill="#e52526" d="M874.925 168.082h6.272v5.293h-6.272z"/><path fill="#fffaff" d="M856.442 176.292h6.276v5.293h-6.276z"/><path fill="#44788c" d="M865.851 176.292h6.28v5.293h-6.28zM874.925 176.292h6.272v5.293h-6.272zM856.442 184.473h6.276v5.289h-6.276zM865.851 184.473h6.28v5.289h-6.28zM874.925 184.473h6.272v5.289h-6.272zM856.442 192.167h6.276v5.295h-6.276zM865.851 192.167h6.28v5.295h-6.28z"/><path fill="#e52526" d="M874.925 192.167h6.272v5.295h-6.272z"/><path fill="#44788c" d="M856.442 200.345h6.276v5.293h-6.276z"/><path fill="#fffaff" d="M865.851 200.345h6.28v5.293h-6.28z"/><path fill="#44788c" d="M874.925 200.345h6.272v5.293h-6.272zM856.442 208.543h6.276v5.293h-6.276zM865.851 208.543h6.28v5.293h-6.28zM874.925 208.543h6.272v5.293h-6.272z"/><path fill="#e52526" d="M856.442 216.72h6.276v5.297h-6.276z"/><path fill="#44788c" d="M865.851 216.72h6.28v5.297h-6.28zM874.925 216.72h6.272v5.297h-6.272zM856.442 224.422h6.276v5.289h-6.276zM865.851 224.422h6.28v5.289h-6.28zM874.925 224.422h6.272v5.289h-6.272zM856.442 232.596h6.276v5.297h-6.276zM865.851 232.596h6.28v5.297h-6.28zM874.925 232.596h6.272v5.297h-6.272zM856.442 240.209h6.276v5.295h-6.276zM865.851 240.209h6.28v5.295h-6.28zM874.925 240.209h6.272v5.295h-6.272zM856.442 248.386h6.276v5.293h-6.276z"/><path fill="#fffaff" d="M865.851 248.386h6.28v5.293h-6.28z"/><path fill="#44788c" d="M874.925 248.386h6.272v5.293h-6.272zM856.442 256.598h6.276v5.293h-6.276zM865.851 256.598h6.28v5.293h-6.28zM874.925 256.598h6.272v5.293h-6.272z"/><path fill="#fffaff" d="M856.442 264.778h6.276v5.293h-6.276z"/><path fill="#44788c" d="M865.851 264.778h6.28v5.293h-6.28zM874.925 264.778h6.272v5.293h-6.272zM856.442 272.476h6.276v5.287h-6.276zM865.851 272.476h6.28v5.287h-6.28z"/><path fill="#fffaff" d="M874.925 272.476h6.272v5.287h-6.272z"/><path fill="#44788c" d="M856.442 280.651h6.276v5.293h-6.276z"/><path fill="#fffaff" d="M865.851 280.651h6.28v5.293h-6.28z"/><path fill="#44788c" d="M874.925 280.651h6.272v5.293h-6.272zM856.442 288.851h6.276v5.293h-6.276zM865.851 288.851h6.28v5.293h-6.28zM874.925 288.851h6.272v5.293h-6.272zM894.304 111.775h6.276v5.296h-6.276zM903.718 111.775h6.274v5.296h-6.274z"/><path fill="#fffaff" d="M912.789 111.775h6.278v5.296h-6.278z"/><path fill="#44788c" d="M894.304 119.951h6.276v5.292h-6.276z"/><path fill="#fffaff" d="M903.718 119.951h6.274v5.292h-6.274z"/><path fill="#44788c" d="M912.789 119.951h6.278v5.292h-6.278z"/><path fill="#fffaff" d="M894.304 127.649h6.276v5.293h-6.276z"/><path fill="#44788c" d="M903.718 127.649h6.274v5.293h-6.274zM912.789 127.649h6.278v5.293h-6.278zM894.304 135.83h6.276v5.291h-6.276z"/><path fill="#fffaff" d="M903.718 135.83h6.274v5.291h-6.274z"/><path fill="#44788c" d="M912.789 135.83h6.278v5.291h-6.278zM894.304 144.027h6.276v5.293h-6.276zM903.718 144.027h6.274v5.293h-6.274zM912.789 144.027h6.278v5.293h-6.278zM894.304 152.207h6.276v5.291h-6.276zM903.718 152.207h6.274v5.291h-6.274zM912.789 152.207h6.278v5.291h-6.278zM894.304 159.901h6.276v5.294h-6.276z"/><path fill="#fffaff" d="M903.718 159.901h6.274v5.294h-6.274z"/><path fill="#44788c" d="M912.789 159.901h6.278v5.294h-6.278zM894.304 168.082h6.276v5.293h-6.276zM903.718 168.082h6.274v5.293h-6.274zM912.789 168.082h6.278v5.293h-6.278zM894.304 176.292h6.276v5.293h-6.276zM903.718 176.292h6.274v5.293h-6.274zM912.789 176.292h6.278v5.293h-6.278zM894.304 184.473h6.276v5.289h-6.276zM903.718 184.473h6.274v5.289h-6.274zM912.789 184.473h6.278v5.289h-6.278z"/><path fill="#fffaff" d="M894.304 192.167h6.276v5.295h-6.276z"/><path fill="#44788c" d="M903.718 192.167h6.274v5.295h-6.274zM912.789 192.167h6.278v5.295h-6.278zM894.304 200.345h6.276v5.293h-6.276z"/><path fill="#fffaff" d="M903.718 200.345h6.274v5.293h-6.274z"/><path fill="#44788c" d="M912.789 200.345h6.278v5.293h-6.278zM894.304 208.543h6.276v5.293h-6.276zM903.718 208.543h6.274v5.293h-6.274zM912.789 208.543h6.278v5.293h-6.278zM894.304 216.72h6.276v5.297h-6.276zM903.718 216.72h6.274v5.297h-6.274zM912.789 216.72h6.278v5.297h-6.278zM894.304 224.422h6.276v5.289h-6.276z"/><path fill="#fffaff" d="M903.718 224.422h6.274v5.289h-6.274z"/><path fill="#44788c" d="M912.789 224.422h6.278v5.289h-6.278zM894.304 232.596h6.276v5.297h-6.276zM903.718 232.596h6.274v5.297h-6.274zM912.789 232.596h6.278v5.297h-6.278zM894.304 240.209h6.276v5.295h-6.276zM903.718 240.209h6.274v5.295h-6.274zM912.789 240.209h6.278v5.295h-6.278zM894.304 248.386h6.276v5.293h-6.276zM903.718 248.386h6.274v5.293h-6.274zM912.789 248.386h6.278v5.293h-6.278zM894.304 256.598h6.276v5.293h-6.276z"/><path fill="#fffaff" d="M903.718 256.598h6.274v5.293h-6.274z"/><path fill="#44788c" d="M912.789 256.598h6.278v5.293h-6.278zM894.304 264.778h6.276v5.293h-6.276zM903.718 264.778h6.274v5.293h-6.274zM912.789 264.778h6.278v5.293h-6.278zM894.304 272.476h6.276v5.287h-6.276zM903.718 272.476h6.274v5.287h-6.274z"/><path fill="#e52526" d="M912.789 272.476h6.278v5.287h-6.278z"/><path fill="#44788c" d="M894.304 280.651h6.276v5.293h-6.276zM903.718 280.651h6.274v5.293h-6.274z"/><path fill="#fffaff" d="M912.789 280.651h6.278v5.293h-6.278z"/><path fill="#44788c" d="M894.304 288.851h6.276v5.293h-6.276zM903.718 288.851h6.274v5.293h-6.274zM912.789 288.851h6.278v5.293h-6.278z"/></g><path fill="#44788c" d="M1145.278 122.268h131.26v216.027h-131.26z"/><path fill="#356b7c" d="M1100.182 144.027l77.346.038 112.702 144.823h-194.392z"/><g><path fill="#e52526" d="M1079.128 144.027h98.392v254.388h-98.392z"/><path fill="#bf212a" d="M1105.149 144.027h72.371v254.388h-72.371z"/><path fill="#fffaff" d="M1082.722 148.211h21.456v3.811h-21.456z"/><path fill="#cacbd4" d="M1106.091 148.211h21.452v3.811h-21.452zM1129.465 148.211h21.45v3.811h-21.45zM1152.834 148.211h21.452v3.811h-21.452z"/><path fill="#fffaff" d="M1082.722 155.351h21.456v3.802h-21.456z"/><path fill="#cacbd4" d="M1106.091 155.351h21.452v3.802h-21.452z"/><path fill="#123851" d="M1129.465 155.351h21.45v3.802h-21.45z"/><path fill="#cacbd4" d="M1152.834 155.351h21.452v3.802h-21.452z"/><path fill="#fffaff" d="M1082.722 162.565h21.456v3.81h-21.456z"/><path fill="#cacbd4" d="M1106.091 162.565h21.452v3.81h-21.452zM1129.465 162.565h21.45v3.81h-21.45zM1152.834 162.565h21.452v3.81h-21.452z"/><path fill="#fffaff" d="M1082.722 169.707h21.456v3.802h-21.456z"/><path fill="#123851" d="M1106.091 169.707h21.452v3.802h-21.452z"/><path fill="#cacbd4" d="M1129.465 169.707h21.45v3.802h-21.45zM1152.834 169.707h21.452v3.802h-21.452z"/><path fill="#fffaff" d="M1082.722 176.568h21.456v3.803h-21.456z"/><path fill="#cacbd4" d="M1106.091 176.568h21.452v3.803h-21.452zM1129.465 176.568h21.45v3.803h-21.45z"/><path fill="#123851" d="M1152.834 176.568h21.452v3.803h-21.452z"/><path fill="#fffaff" d="M1082.722 183.706h21.456v3.806h-21.456z"/><path fill="#cacbd4" d="M1106.091 183.706h21.452v3.806h-21.452zM1129.465 183.706h21.45v3.806h-21.45zM1152.834 183.706h21.452v3.806h-21.452z"/><path fill="#fffaff" d="M1082.722 190.922h21.456v3.804h-21.456z"/><path fill="#123851" d="M1106.091 190.922h21.452v3.804h-21.452zM1129.465 190.922h21.45v3.804h-21.45z"/><path fill="#cacbd4" d="M1152.834 190.922h21.452v3.804h-21.452z"/><path fill="#fffaff" d="M1082.722 198.064h21.456v3.804h-21.456z"/><path fill="#cacbd4" d="M1106.091 198.064h21.452v3.804h-21.452z"/><path fill="#123851" d="M1129.465 198.064h21.45v3.804h-21.45z"/><path fill="#cacbd4" d="M1152.834 198.064h21.452v3.804h-21.452z"/><path fill="#18476c" d="M1082.722 205.476h21.456v3.806h-21.456z"/><path fill="#cacbd4" d="M1106.091 205.476h21.452v3.806h-21.452zM1129.465 205.476h21.45v3.806h-21.45z"/><path fill="#123851" d="M1152.834 205.476h21.452v3.806h-21.452z"/><path fill="#fffaff" d="M1082.722 212.615h21.456v3.804h-21.456z"/><path fill="#cacbd4" d="M1106.091 212.615h21.452v3.804h-21.452zM1129.465 212.615h21.45v3.804h-21.45zM1152.834 212.615h21.452v3.804h-21.452z"/><path fill="#fffaff" d="M1082.722 219.83h21.456v3.804h-21.456z"/><path fill="#cacbd4" d="M1106.091 219.83h21.452v3.804h-21.452z"/><path fill="#123851" d="M1129.465 219.83h21.45v3.804h-21.45zM1152.834 219.83h21.452v3.804h-21.452z"/><path fill="#fffaff" d="M1082.722 226.97h21.456v3.806h-21.456z"/><path fill="#cacbd4" d="M1106.091 226.97h21.452v3.806h-21.452zM1129.465 226.97h21.45v3.806h-21.45z"/><path fill="#123851" d="M1152.834 226.97h21.452v3.806h-21.452z"/><path fill="#fffaff" d="M1082.722 233.829h21.456v3.809h-21.456z"/><path fill="#cacbd4" d="M1106.091 233.829h21.452v3.809h-21.452zM1129.465 233.829h21.45v3.809h-21.45zM1152.834 233.829h21.452v3.809h-21.452z"/><path fill="#fffaff" d="M1082.722 240.968h21.456v3.803h-21.456z"/><path fill="#123851" d="M1106.091 240.968h21.452v3.803h-21.452z"/><path fill="#cacbd4" d="M1129.465 240.968h21.45v3.803h-21.45z"/><path fill="#123851" d="M1152.834 240.968h21.452v3.803h-21.452z"/><path fill="#18476c" d="M1082.722 248.187h21.456v3.806h-21.456z"/><path fill="#cacbd4" d="M1106.091 248.187h21.452v3.806h-21.452zM1129.465 248.187h21.45v3.806h-21.45zM1152.834 248.187h21.452v3.806h-21.452z"/><path fill="#fffaff" d="M1082.722 255.321h21.456v3.806h-21.456z"/><path fill="#123851" d="M1106.091 255.321h21.452v3.806h-21.452z"/><path fill="#cacbd4" d="M1129.465 255.321h21.45v3.806h-21.45zM1152.834 255.321h21.452v3.806h-21.452z"/><path fill="#fffaff" d="M1082.722 261.892h21.456v3.806h-21.456z"/><path fill="#cacbd4" d="M1106.091 261.892h21.452v3.806h-21.452zM1129.465 261.892h21.45v3.806h-21.45zM1152.834 261.892h21.452v3.806h-21.452z"/><path fill="#fffaff" d="M1082.722 269.027h21.456v3.81h-21.456z"/><path fill="#cacbd4" d="M1106.091 269.027h21.452v3.81h-21.452z"/><path fill="#123851" d="M1129.465 269.027h21.45v3.81h-21.45z"/><path fill="#cacbd4" d="M1152.834 269.027h21.452v3.81h-21.452z"/><path fill="#18476c" d="M1082.722 276.246h21.456v3.806h-21.456z"/><path fill="#123851" d="M1106.091 276.246h21.452v3.806h-21.452z"/><path fill="#cacbd4" d="M1129.465 276.246h21.45v3.806h-21.45zM1152.834 276.246h21.452v3.806h-21.452z"/><path fill="#fffaff" d="M1082.722 283.381h21.456v3.811h-21.456z"/><path fill="#cacbd4" d="M1106.091 283.381h21.452v3.811h-21.452zM1129.465 283.381h21.45v3.811h-21.45zM1152.834 283.381h21.452v3.811h-21.452z"/><path fill="#fffaff" d="M1082.722 290.249h21.456v3.802h-21.456z"/><path fill="#cacbd4" d="M1106.091 290.249h21.452v3.802h-21.452zM1129.465 290.249h21.45v3.802h-21.45zM1152.834 290.249h21.452v3.802h-21.452z"/><path fill="#18476c" d="M1082.722 297.382h21.456v3.81h-21.456z"/><path fill="#cacbd4" d="M1106.091 297.382h21.452v3.81h-21.452z"/><path fill="#123851" d="M1129.465 297.382h21.45v3.81h-21.45z"/><path fill="#cacbd4" d="M1152.834 297.382h21.452v3.81h-21.452z"/><path fill="#fffaff" d="M1082.722 304.601h21.456v3.808h-21.456z"/><path fill="#123851" d="M1106.091 304.601h21.452v3.808h-21.452z"/><path fill="#cacbd4" d="M1129.465 304.601h21.45v3.808h-21.45z"/><path fill="#123851" d="M1152.834 304.601h21.452v3.808h-21.452z"/><path fill="#fffaff" d="M1082.722 311.739h21.456v3.806h-21.456z"/><path fill="#cacbd4" d="M1106.091 311.739h21.452v3.806h-21.452zM1129.465 311.739h21.45v3.806h-21.45zM1152.834 311.739h21.452v3.806h-21.452z"/><path fill="#fffaff" d="M1082.722 319.152h21.456v3.808h-21.456z"/><path fill="#cacbd4" d="M1106.091 319.152h21.452v3.808h-21.452z"/><path fill="#123851" d="M1129.465 319.152h21.45v3.808h-21.45z"/><path fill="#cacbd4" d="M1152.834 319.152h21.452v3.808h-21.452z"/><path fill="#18476c" d="M1082.722 326.29h21.456v3.806h-21.456z"/><path fill="#123851" d="M1106.091 326.29h21.452v3.806h-21.452z"/><path fill="#cacbd4" d="M1129.465 326.29h21.45v3.806h-21.45zM1152.834 326.29h21.452v3.806h-21.452z"/><path fill="#fffaff" d="M1082.722 333.509h21.456v3.806h-21.456z"/><path fill="#cacbd4" d="M1106.091 333.509h21.452v3.806h-21.452zM1129.465 333.509h21.45v3.806h-21.45z"/><path fill="#123851" d="M1152.834 333.509h21.452v3.806h-21.452z"/><path fill="#fffaff" d="M1082.722 340.648h21.456v3.803h-21.456z"/><path fill="#123851" d="M1106.091 340.648h21.452v3.803h-21.452z"/><path fill="#cacbd4" d="M1129.465 340.648h21.45v3.803h-21.45zM1152.834 340.648h21.452v3.803h-21.452z"/><path fill="#fffaff" d="M1082.722 347.508h21.456v3.81h-21.456z"/><path fill="#cacbd4" d="M1106.091 347.508h21.452v3.81h-21.452zM1129.465 347.508h21.45v3.81h-21.45zM1152.834 347.508h21.452v3.81h-21.452z"/><path fill="#fffaff" d="M1082.722 354.647h21.456v3.804h-21.456z"/><path fill="#123851" d="M1106.091 354.647h21.452v3.804h-21.452z"/><path fill="#cacbd4" d="M1129.465 354.647h21.45v3.804h-21.45z"/><path fill="#123851" d="M1152.834 354.647h21.452v3.804h-21.452z"/><path fill="#fffaff" d="M1082.722 361.864h21.456v3.809h-21.456z"/><path fill="#cacbd4" d="M1106.091 361.864h21.452v3.809h-21.452zM1129.465 361.864h21.45v3.809h-21.45zM1152.834 361.864h21.452v3.809h-21.452z"/><path fill="#18476c" d="M1082.722 368.997h21.456v3.81h-21.456z"/><path fill="#cacbd4" d="M1106.091 368.997h21.452v3.81h-21.452zM1129.465 368.997h21.45v3.81h-21.45z"/><path fill="#123851" d="M1152.834 368.997h21.452v3.81h-21.452z"/><path fill="#fffaff" d="M1082.722 376.151h21.456v3.81h-21.456z"/><path fill="#123851" d="M1106.091 376.151h21.452v3.81h-21.452zM1129.465 376.151h21.45v3.81h-21.45z"/><path fill="#cacbd4" d="M1152.834 376.151h21.452v3.81h-21.452z"/><path fill="#18476c" d="M1082.722 383.016h21.456v3.803h-21.456z"/><path fill="#123851" d="M1106.091 383.016h21.452v3.803h-21.452z"/><path fill="#cacbd4" d="M1129.465 383.016h21.45v3.803h-21.45zM1152.834 383.016h21.452v3.803h-21.452z"/><path fill="#fffaff" d="M1082.722 390.15h21.456v3.811h-21.456z"/><path fill="#cacbd4" d="M1106.091 390.15h21.452v3.811h-21.452zM1129.465 390.15h21.45v3.811h-21.45zM1152.834 390.15h21.452v3.811h-21.452z"/></g><g><path fill="#6692aa" d="M817.316 309.976H947.16v88.439H817.316z"/><path d="M895.224 363.399v-33.283s0-12.08-13.154-12.08c-12.814 0-12.814 12.08-12.814 12.08v33.283h25.968zM917.45 363.475v-17.383s0-6.802-7.41-6.802c-7.215 0-7.215 6.802-7.215 6.802v17.383h14.625zM862.002 363.475v-17.383s0-6.802-7.412-6.802c-7.209 0-7.209 6.802-7.209 6.802v17.383h14.621zM838.316 363.475v-17.383s0-6.802-7.412-6.802c-7.215 0-7.215 6.802-7.215 6.802v17.383h14.627zM940.785 363.475v-17.383s0-6.802-7.406-6.802c-7.219 0-7.219 6.802-7.219 6.802v17.383h14.625z" fill="#adc4d1"/><path fill="#215b80" d="M585.699 296.367h172.192v102.048H585.699z"/><path fill="#44788c" d="M947.16 318.137h56.854v80.278H947.16z"/><path fill="#6692aa" d="M1004.014 296.367h279.347v102.048h-279.347z"/><path fill="#fffaff" d="M585.699 282.762h172.192v13.605H585.699zM1004.014 282.762h279.347v13.605h-279.347zM757.891 282.762h59.425v13.605h-59.425zM817.316 296.367H947.16v13.609H817.316zM947.16 304.532h56.854v13.605H947.16z"/><path fill="#adc4d1" d="M585.699 289.566h172.192v6.8H585.699zM757.891 289.566h59.425v6.8h-59.425zM817.316 303.171H947.16v6.804H817.316zM947.16 311.503h56.854v12.723H947.16zM1004.014 292.04h279.347v14.681h-279.347z"/><path fill="#44788c" d="M526.638 305.44h290.679v57.375H526.638z"/><path fill="#fffaff" d="M597.632 311.109h3.978v45.127h-3.978zM588.272 311.109h3.978v45.127h-3.978zM585.699 356.236h17.547v6.579h-17.547z"/><path fill="#e52526" d="M593.654 305.44h-6.783l1.401 5.669h3.978zM603.013 305.44h-6.786l1.405 5.669h3.979z"/><path d="M794.259 356.802v-17.391s0-6.8-7.407-6.8c-7.216 0-7.216 6.8-7.216 6.8v17.391h14.623z" fill="#adc4d1"/><path fill="#fffaff" d="M632.491 311.109h3.975v45.127h-3.975zM623.132 311.109h3.978v45.127h-3.978zM620.996 356.236h17.548v6.579h-17.548zM608.976 315.076h8.775v8.395h-8.775z"/><path fill="#adc4d1" d="M604.591 370.013h16.406v28.402h-16.406z"/><path d="M617.752 362.815h-8.775V340.48s0-4.087 4.332-4.087c4.444 0 4.444 4.087 4.444 4.087v22.335zM652.024 362.815h-8.77V340.48s0-4.087 4.328-4.087c4.441 0 4.441 4.087 4.441 4.087v22.335zM676.71 362.815h-8.774V340.48s0-4.087 4.332-4.087c4.441 0 4.441 4.087 4.441 4.087v22.335zM701.862 362.815h-8.775V340.48s0-4.087 4.333-4.087c4.441 0 4.441 4.087 4.441 4.087v22.335zM736.486 362.815h-8.77V340.48s0-4.087 4.326-4.087c4.444 0 4.444 4.087 4.444 4.087v22.335z" fill="#e52526"/><path d="M886.63 363.399h-8.776v-16.895s0-4.079 4.329-4.079c4.447 0 4.447 4.079 4.447 4.079v16.895zM643.254 315.076h8.77v8.395h-8.77zM667.936 315.076h8.774v8.395h-8.774zM693.087 315.076h8.775v8.395h-8.775zM727.716 315.076h8.77v8.395h-8.77zM782.562 315.076h8.775v8.395h-8.775zM850.304 325.737h8.772v8.389h-8.772zM905.752 325.737h8.778v8.389h-8.778zM929.088 325.737h8.776v8.389h-8.776z" fill="#fffaff"/><path fill="#e52526" d="M628.51 305.44h-6.781l1.403 5.669h3.978zM637.873 305.44h-6.786l1.404 5.669h3.976z"/><path fill="#fffaff" d="M717.769 311.109h3.976v45.127h-3.976zM708.409 311.109h3.977v45.127h-3.977zM706.246 356.236h17.546v6.579h-17.546z"/><path fill="#e52526" d="M713.791 305.44h-6.784l1.402 5.669h3.978z"/><path fill="#fffaff" d="M658.227 311.109h3.975v45.127h-3.975zM656.822 356.236h6.785v6.579h-6.785z"/><path fill="#e52526" d="M663.607 305.44h-6.785l1.405 5.669h3.975z"/><path fill="#fffaff" d="M1130.469 312.391h3.975v45.131h-3.975z"/><path fill="#fffaff" d="M1129.061 357.521h6.787v6.575h-6.787zM1135.848 306.722h-6.787l1.408 5.669h3.975zM1111.517 312.391h3.977v45.131h-3.977z"/><path fill="#fffaff" d="M1110.113 357.521h6.781v6.575h-6.781zM1116.894 306.722h-6.781l1.404 5.669h3.977zM1091.863 312.391h3.975v45.131h-3.975z"/><path fill="#fffaff" d="M1090.457 357.521h6.787v6.575h-6.787zM1097.244 306.722h-6.787l1.406 5.669h3.975zM1072.561 312.391h3.975v45.131h-3.975z"/><path fill="#fffaff" d="M1071.161 357.521h6.783v6.575h-6.783zM1077.944 306.722h-6.783l1.4 5.669h3.975zM1052.911 312.391h3.977v45.131h-3.977z"/><path fill="#fffaff" d="M1051.505 357.521h6.787v6.575h-6.787zM1058.292 306.722h-6.787l1.406 5.669h3.977zM1033.609 312.391h3.975v45.131h-3.975z"/><path fill="#fffaff" d="M1032.203 357.521h6.785v6.575h-6.785zM1038.988 306.722h-6.785l1.406 5.669h3.975zM1014.307 312.391h3.975v45.131h-3.975z"/><path fill="#fffaff" d="M1012.903 357.521h6.783v6.575h-6.783zM1019.686 306.722h-6.783l1.404 5.669h3.975zM994.261 329.895h3.977v41.217h-3.977zM992.899 371.112h6.783v6.575h-6.783zM999.643 324.226h-6.788l1.406 5.669h3.978zM980.219 329.895h3.977v41.217h-3.977zM978.861 371.112h6.783v6.575h-6.783zM985.602 324.226h-6.783l1.4 5.669h3.978zM966.535 329.895h3.977v41.217h-3.977zM965.175 371.112h6.781v6.575h-6.781zM971.917 324.226h-6.786l1.404 5.669h3.978zM952.849 329.895h3.975v41.217h-3.975zM951.487 371.112h6.785v6.575h-6.785zM958.233 324.226h-6.788l1.404 5.669h3.976zM1266.861 312.391h3.977v45.131h-3.977z"/><path fill="#fffaff" d="M1265.457 357.521h6.785v6.575h-6.785zM1272.242 306.722h-6.785l1.404 5.669h3.977zM1247.911 312.391h3.975v45.131h-3.975z"/><path fill="#fffaff" d="M1246.505 357.521h6.789v6.575h-6.789zM1253.294 306.722h-6.789l1.406 5.669h3.975zM1228.261 312.391h3.979v45.131h-3.979z"/><path fill="#fffaff" d="M1226.859 357.521h6.779v6.575h-6.779zM1233.638 306.722h-6.779l1.402 5.669h3.98zM1208.961 312.391h3.977v45.131h-3.977z"/><path fill="#fffaff" d="M1207.553 357.521h6.79v6.575h-6.79zM1214.343 306.722h-6.79l1.408 5.669h3.978zM1189.307 312.391h3.975v45.131h-3.975z"/><path fill="#fffaff" d="M1187.903 357.521h6.781v6.575h-6.781zM1194.684 306.722h-6.781l1.404 5.669h3.975zM1170.009 312.391h3.973v45.131h-3.973z"/><path fill="#fffaff" d="M1168.601 357.521h6.781v6.575h-6.781zM1175.382 306.722h-6.781l1.408 5.669h3.974zM1150.701 312.391h3.979v45.131h-3.979z"/><path fill="#fffaff" d="M1149.299 357.521h6.781v6.575h-6.781zM1156.08 306.722h-6.781l1.402 5.669h3.98zM683.259 311.109h3.973v45.127h-3.973zM681.853 356.236h6.785v6.579h-6.785z"/><path fill="#e52526" d="M688.638 305.44h-6.785l1.406 5.669h3.973zM723.152 305.44h-6.788l1.405 5.669h3.976z"/><path fill="#fffaff" d="M751.925 311.109h3.978v45.127h-3.978zM742.565 311.109h3.977v45.127h-3.977zM740.341 356.236h17.55v6.579h-17.55z"/><path fill="#e52526" d="M747.946 305.44h-6.786l1.405 5.669h3.977zM757.305 305.44h-6.783l1.403 5.669h3.979z"/><path fill="#18476c" d="M608.657 375.69h8.274v14.326h-8.274z"/><path fill="#adc4d1" d="M639.436 370.013h16.405v28.402h-16.405z"/><path fill="#18476c" d="M643.499 375.69h8.278v14.326h-8.278z"/><path fill="#adc4d1" d="M664.124 370.013h16.404v28.402h-16.404z"/><path fill="#6692aa" d="M757.891 362.815h59.425v35.6h-59.425z"/><path fill="#18476c" d="M668.186 375.69h8.278v14.326h-8.278z"/><path fill="#adc4d1" d="M689.836 370.013h16.405v28.402h-16.405z"/><path fill="#18476c" d="M693.902 375.69h8.273v14.326h-8.273z"/><path fill="#adc4d1" d="M723.894 370.013H740.3v28.402h-16.406z"/><path fill="#18476c" d="M727.963 375.69h8.274v14.326h-8.274z"/><path fill="#215b80" d="M817.316 362.815H947.16v35.6H817.316z"/><path fill="#adc4d1" d="M778.992 370.013h16.406v28.402h-16.406z"/><path fill="#18476c" d="M783.059 375.69h8.278v14.326h-8.278z"/><path fill="#adc4d1" d="M846.489 370.013h16.406v28.402h-16.406z"/><path fill="#18476c" d="M850.556 375.69h8.275v14.326h-8.275z"/><path fill="#adc4d1" d="M874.036 370.013h16.408v28.402h-16.408z"/><path fill="#18476c" d="M878.104 375.69h8.273v14.326h-8.273z"/><path fill="#adc4d1" d="M901.934 370.013h16.408v28.402h-16.408z"/><path fill="#18476c" d="M906 375.69h8.273v14.326H906z"/><path fill="#adc4d1" d="M925.27 370.013h16.408v28.402H925.27z"/><path fill="#18476c" d="M929.335 375.69h8.277v14.326h-8.277z"/><path fill="#fffaff" d="M782.81 342.44h8.278v14.326h-8.278zM850.556 349.072h8.273V363.4h-8.273zM906.002 349.149h8.271v14.326h-8.271zM929.335 349.072h8.277V363.4h-8.277zM826.616 325.737h8.774v8.389h-8.774z"/><path fill="#adc4d1" d="M822.798 370.013h16.404v28.402h-16.404z"/><path fill="#18476c" d="M826.866 375.69h8.275v14.326h-8.275z"/><path fill="#fffaff" d="M826.866 349.072h8.275V363.4h-8.275z"/><ellipse cx="882.24" cy="329.394" rx="3.773" ry="3.656" fill="#e52526"/><path fill="#215b80" d="M1004.014 364.096h279.347v34.319h-279.347z"/><path fill="#215b80" d="M947.16 377.687h56.854v20.728H947.16z"/><path d="M999.467 394.887h-5.551v-10.566s0-2.553 2.743-2.553c2.808 0 2.808 2.553 2.808 2.553v10.566zM984.961 394.887h-5.551v-10.566s0-2.553 2.739-2.553c2.812 0 2.812 2.553 2.812 2.553v10.566zM970.829 394.887h-5.549v-10.566s0-2.553 2.737-2.553c2.812 0 2.812 2.553 2.812 2.553v10.566zM957.286 394.887h-5.547v-10.566s0-2.553 2.735-2.553c2.812 0 2.812 2.553 2.812 2.553v10.566zM1276.048 391.633h-8.527v-16.416s0-3.967 4.201-3.967c4.325 0 4.325 3.967 4.325 3.967v16.416zM1254.904 391.633h-8.522v-16.416s0-3.967 4.202-3.967c4.321 0 4.321 3.967 4.321 3.967v16.416zM1232.622 391.633h-8.529v-16.416s0-3.967 4.212-3.967c4.317 0 4.317 3.967 4.317 3.967v16.416zM1210.908 391.633h-8.527v-16.416s0-3.967 4.21-3.967c4.317 0 4.317 3.967 4.317 3.967v16.416zM1190.11 391.633h-8.525v-16.416s0-3.967 4.204-3.967c4.321 0 4.321 3.967 4.321 3.967v16.416zM1168.964 391.633h-8.522v-16.416s0-3.967 4.206-3.967c4.317 0 4.317 3.967 4.317 3.967v16.416zM1146.684 391.633h-8.525v-16.416s0-3.967 4.208-3.967c4.317 0 4.317 3.967 4.317 3.967v16.416zM1124.976 391.633h-8.531v-16.416s0-3.967 4.212-3.967c4.319 0 4.319 3.967 4.319 3.967v16.416zM1103.485 391.633h-8.518v-16.416s0-3.967 4.203-3.967c4.315 0 4.315 3.967 4.315 3.967v16.416zM1082.347 391.633h-8.529v-16.416s0-3.967 4.206-3.967c4.323 0 4.323 3.967 4.323 3.967v16.416zM1060.065 391.633h-8.523v-16.416s0-3.967 4.206-3.967c4.317 0 4.317 3.967 4.317 3.967v16.416zM1038.355 391.633h-8.527v-16.416s0-3.967 4.206-3.967c4.321 0 4.321 3.967 4.321 3.967v16.416zM1018.972 391.633h-8.525v-16.416s0-3.967 4.208-3.967c4.317 0 4.317 3.967 4.317 3.967v16.416z" fill="#18476c"/><path d="M835.391 346.762v-.412s0-4.082-4.449-4.082c-4.325 0-4.325 4.082-4.325 4.082v.412h8.774zM791.337 340.89v-.41s0-4.087-4.448-4.087c-4.327 0-4.327 4.087-4.327 4.087v.41h8.775zM859.076 346.762v-.412s0-4.082-4.443-4.082c-4.329 0-4.329 4.082-4.329 4.082v.412h8.772zM914.53 346.841v-.414s0-4.079-4.447-4.079c-4.332 0-4.332 4.079-4.332 4.079v.414h8.779zM846.442 280.044h32.523v9.522h-32.523zM937.864 346.762v-.412s0-4.082-4.449-4.082c-4.329 0-4.329 4.082-4.329 4.082v.412h8.778z" fill="#fffaff"/><path fill="#6692aa" d="M848.431 281.742h3.745v7.824h-3.745zM854.688 281.742h3.747v7.824h-3.747zM861.021 281.742h3.747v7.824h-3.747zM867.387 281.742h3.741v7.824h-3.741zM873.435 281.742h3.743v7.824h-3.743zM757.891 296.367h59.425v9.073h-59.425z"/><path d="M909.407 296.367c-13.998-5.383-29.589-8.411-46.049-8.411-16.452 0-32.049 3.029-46.041 8.411h92.09z" fill="#e52526"/><path fill="#6692aa" d="M845.713 278.084h33.981v1.96h-33.981z"/><path fill="#adc4d1" d="M845.713 276.981h33.981v1.103h-33.981z"/><path fill="#44788c" d="M569.203 278.084h206.7v4.678h-206.7z"/><path fill="#adc4d1" d="M579.972 264.165h184.701v13.92H579.972z"/><path fill="#6692aa" d="M576.575 211.898h191.964v4.678H576.575zM592.6 164.316h159.91v2.34H592.6z"/><path fill="#adc4d1" d="M592.6 158.082h159.91v2.337H592.6z"/><path fill="#44788c" d="M591.788 160.419h161.538v3.893H591.788z"/><path fill="#adc4d1" d="M586.759 197.977h171.133v13.922H586.759z"/><path fill="#fffaff" d="M594.24 166.656h155.113v31.321H594.24z"/><path fill="#44788c" d="M594.123 216.576h156.399v47.588H594.123z"/><path fill="#fffaff" d="M670.496 222.245h3.979v41.919h-3.979z"/><path fill="#e52526" d="M675.878 216.576h-6.785l1.403 5.669h3.979z"/><path fill="#fffaff" d="M660.378 222.245h3.977v41.919h-3.977z"/><path fill="#e52526" d="M665.757 216.576h-6.783l1.404 5.669h3.977z"/><path fill="#fffaff" d="M650.628 222.245h3.979v41.919h-3.979z"/><path fill="#e52526" d="M656.012 216.576h-6.785l1.401 5.669h3.98z"/><path fill="#fffaff" d="M640.775 222.245h3.977v41.919h-3.977z"/><path fill="#e52526" d="M646.154 216.576h-6.784l1.405 5.669h3.978z"/><path fill="#fffaff" d="M630.653 222.245h3.978v41.919h-3.978z"/><path fill="#e52526" d="M636.033 216.576h-6.784l1.404 5.669h3.978z"/><path fill="#fffaff" d="M620.23 222.245h3.978v41.919h-3.978z"/><path fill="#e52526" d="M625.612 216.576h-6.786l1.404 5.669h3.978z"/><path fill="#fffaff" d="M610.769 222.245h3.978v41.919h-3.978z"/><path fill="#e52526" d="M616.151 216.576h-6.787l1.405 5.669h3.979z"/><path fill="#fffaff" d="M740.341 222.245h3.976v41.919h-3.976z"/><path fill="#e52526" d="M745.722 216.576h-6.782l1.401 5.669h3.977z"/><path fill="#fffaff" d="M730.223 222.245h3.975v41.919h-3.975z"/><path fill="#e52526" d="M735.604 216.576h-6.787l1.406 5.669h3.975z"/><path fill="#fffaff" d="M719.797 222.245h3.976v41.919h-3.976z"/><path fill="#e52526" d="M725.177 216.576h-6.78l1.4 5.669h3.976z"/><path fill="#fffaff" d="M759.773 222.245h3.974v41.919h-3.974z"/><path fill="#e52526" d="M765.154 216.576h-6.788l1.407 5.669h3.974z"/><path fill="#fffaff" d="M749.352 222.245h3.974v41.919h-3.974z"/><path fill="#e52526" d="M754.734 216.576h-6.788l1.406 5.669h3.974z"/><path fill="#fffaff" d="M710.783 222.245h3.976v41.919h-3.976z"/><path fill="#e52526" d="M716.165 216.576h-6.784l1.402 5.669h3.976z"/><path fill="#fffaff" d="M700.662 222.245h3.978v41.919h-3.978z"/><path fill="#e52526" d="M706.043 216.576h-6.783l1.402 5.669h3.979z"/><path fill="#fffaff" d="M690.239 222.245h3.975v41.919h-3.975z"/><path fill="#e52526" d="M695.62 216.576h-6.786l1.405 5.669h3.975z"/><path fill="#fffaff" d="M680.78 222.245h3.976v41.919h-3.976z"/><path fill="#e52526" d="M686.16 216.576h-6.785l1.405 5.669h3.976z"/><path fill="#fffaff" d="M600.649 222.245h3.975v41.919h-3.975z"/><path fill="#e52526" d="M606.029 216.576h-6.784l1.404 5.669h3.975z"/><path fill="#fffaff" d="M590.927 222.245h3.977v41.919h-3.977z"/><path fill="#e52526" d="M596.308 216.576h-6.784l1.403 5.669h3.977z"/><path fill="#fffaff" d="M581.374 222.245h3.981v41.919h-3.981z"/><path fill="#e52526" d="M586.759 216.576h-6.787l1.402 5.669h3.98zM674.781 192.594h-6.073v-15.459s0-2.825 3-2.825c3.073 0 3.073 2.825 3.073 2.825v15.459zM684.081 192.594h-6.073v-15.459s0-2.825 2.995-2.825c3.078 0 3.078 2.825 3.078 2.825v15.459zM693.198 192.594h-6.073v-15.459s0-2.825 2.996-2.825c3.077 0 3.077 2.825 3.077 2.825v15.459zM702.492 192.594h-6.069v-15.459s0-2.825 2.996-2.825c3.073 0 3.073 2.825 3.073 2.825v15.459zM711.367 192.594h-6.075v-15.459s0-2.825 3.002-2.825c3.073 0 3.073 2.825 3.073 2.825v15.459zM720.666 192.594h-6.07v-15.459s0-2.825 2.992-2.825c3.077 0 3.077 2.825 3.077 2.825v15.459zM729.654 192.594h-6.073v-15.459s0-2.825 2.991-2.825c3.081 0 3.081 2.825 3.081 2.825v15.459zM738.953 192.594h-6.073v-15.459s0-2.825 2.996-2.825c3.077 0 3.077 2.825 3.077 2.825v15.459zM747.826 192.594h-6.073v-15.459s0-2.825 2.997-2.825c3.076 0 3.076 2.825 3.076 2.825v15.459zM601.835 192.594h-6.071v-15.459s0-2.825 2.996-2.825c3.075 0 3.075 2.825 3.075 2.825v15.459zM610.708 192.594h-6.07v-15.459s0-2.825 2.996-2.825c3.074 0 3.074 2.825 3.074 2.825v15.459zM620.061 192.594h-6.071v-15.459s0-2.825 2.994-2.825c3.077 0 3.077 2.825 3.077 2.825v15.459zM629.359 192.594h-6.071v-15.459s0-2.825 2.994-2.825c3.077 0 3.077 2.825 3.077 2.825v15.459z"/><path fill="#44788c" d="M648.036 90.688h48.387v10.659h-48.387z"/><path fill="#adc4d1" d="M648.036 89.18h48.387v5.331h-48.387z"/><path fill="#6692aa" d="M656.643 80.71h30.483v8.47h-30.483zM656.643 49.189h30.483v7.338h-30.483z"/><path d="M638.476 192.594h-6.074v-15.459s0-2.825 2.992-2.825c3.082 0 3.082 2.825 3.082 2.825v15.459zM647.774 192.594H641.7v-15.459s0-2.825 2.996-2.825c3.078 0 3.078 2.825 3.078 2.825v15.459zM656.643 192.594h-6.069v-15.459s0-2.825 2.993-2.825c3.075 0 3.075 2.825 3.075 2.825v15.459z" fill="#e52526"/><path d="M676.372 40.797C676.331 18.197 674.341 0 671.88 0c-2.45 0-4.441 18.197-4.486 40.797h8.978z" fill="#6692aa"/><path d="M671.88 0c-2.45 0-4.441 18.197-4.486 40.797h4.408c.001 0 .078-36.335.078-40.797z" fill="#adc4d1"/><path d="M665.945 192.594h-6.074v-15.459s0-2.825 2.996-2.825c3.078 0 3.078 2.825 3.078 2.825v15.459zM739.248 158.082c-.648-35.214-30.278-63.572-66.764-63.572-36.482 0-66.118 28.357-66.762 63.572h133.526z" fill="#e52526"/><path d="M683.155 49.189c-.107-5.947-5.111-10.734-11.275-10.734-6.157 0-11.163 4.787-11.271 10.734h22.546zM675.498 150.985c0 1.393-1.162 2.519-2.599 2.519-1.43 0-2.595-1.126-2.595-2.519v-6.346c0-1.389 1.165-2.518 2.595-2.518 1.437 0 2.599 1.128 2.599 2.518v6.346zM682.814 150.985c0 1.393-1.166 2.519-2.598 2.519-1.436 0-2.595-1.126-2.595-2.519v-6.346c0-1.389 1.159-2.518 2.595-2.518 1.431 0 2.598 1.128 2.598 2.518v6.346zM690.289 150.985c0 1.393-1.162 2.519-2.591 2.519-1.435 0-2.6-1.126-2.6-2.519v-6.346c0-1.389 1.165-2.518 2.6-2.518 1.429 0 2.591 1.128 2.591 2.518v6.346zM697.643 150.985c0 1.393-1.159 2.519-2.593 2.519-1.438 0-2.598-1.126-2.598-2.519v-6.346c0-1.389 1.161-2.518 2.598-2.518 1.435 0 2.593 1.128 2.593 2.518v6.346zM645.916 150.985c0 1.393-1.163 2.519-2.599 2.519-1.432 0-2.596-1.126-2.596-2.519v-6.346c0-1.389 1.164-2.518 2.596-2.518 1.436 0 2.599 1.128 2.599 2.518v6.346zM653.232 150.985c0 1.393-1.165 2.519-2.596 2.519-1.436 0-2.599-1.126-2.599-2.519v-6.346c0-1.389 1.164-2.518 2.599-2.518 1.431 0 2.596 1.128 2.596 2.518v6.346zM660.711 150.985c0 1.393-1.166 2.519-2.598 2.519-1.433 0-2.596-1.126-2.596-2.519v-6.346c0-1.389 1.163-2.518 2.596-2.518 1.431 0 2.598 1.128 2.598 2.518v6.346zM668.065 150.985c0 1.393-1.165 2.519-2.601 2.519-1.433 0-2.598-1.126-2.598-2.519v-6.346c0-1.389 1.165-2.518 2.598-2.518 1.436 0 2.601 1.128 2.601 2.518v6.346zM734.248 150.985c0 1.393-1.162 2.519-2.592 2.519-1.435 0-2.598-1.126-2.598-2.519v-6.346c0-1.389 1.163-2.518 2.598-2.518 1.43 0 2.592 1.128 2.592 2.518v6.346zM704.667 150.985c0 1.393-1.162 2.519-2.595 2.519-1.433 0-2.598-1.126-2.598-2.519v-6.346c0-1.389 1.164-2.518 2.598-2.518 1.433 0 2.595 1.128 2.595 2.518v6.346zM711.981 150.985c0 1.393-1.162 2.519-2.594 2.519-1.436 0-2.596-1.126-2.596-2.519v-6.346c0-1.389 1.161-2.518 2.596-2.518 1.432 0 2.594 1.128 2.594 2.518v6.346zM719.461 150.985c0 1.393-1.163 2.519-2.596 2.519-1.431 0-2.592-1.126-2.592-2.519v-6.346c0-1.389 1.161-2.518 2.592-2.518 1.433 0 2.596 1.128 2.596 2.518v6.346zM726.813 150.985c0 1.393-1.159 2.519-2.595 2.519-1.428 0-2.596-1.126-2.596-2.519v-6.346c0-1.389 1.168-2.518 2.596-2.518 1.436 0 2.595 1.128 2.595 2.518v6.346zM638.442 150.985c0 1.393-1.16 2.519-2.594 2.519-1.436 0-2.596-1.126-2.596-2.519v-6.346c0-1.389 1.161-2.518 2.596-2.518 1.434 0 2.594 1.128 2.594 2.518v6.346zM616.178 150.985c0 1.393-1.163 2.519-2.599 2.519-1.432 0-2.596-1.126-2.596-2.519v-6.346c0-1.389 1.164-2.518 2.596-2.518 1.436 0 2.599 1.128 2.599 2.518v6.346zM623.656 150.985c0 1.393-1.165 2.519-2.597 2.519-1.433 0-2.595-1.126-2.595-2.519v-6.346c0-1.389 1.162-2.518 2.595-2.518 1.432 0 2.597 1.128 2.597 2.518v6.346zM631.008 150.985c0 1.393-1.163 2.519-2.596 2.519s-2.598-1.126-2.598-2.519v-6.346c0-1.389 1.165-2.518 2.598-2.518 1.433 0 2.596 1.128 2.596 2.518v6.346zM658.834 59.704h2.228v21.005h-2.228z" fill="#fffaff"/><path fill="#e52526" d="M661.851 56.527h-3.804l.787 3.177h2.228z"/><path fill="#fffaff" d="M664.334 59.704h2.227v21.005h-2.227z"/><path fill="#e52526" d="M667.348 56.527h-3.801l.787 3.177h2.227z"/><path fill="#fffaff" d="M670.272 59.704h2.227v21.005h-2.227z"/><path fill="#e52526" d="M673.286 56.527h-3.8l.786 3.177h2.227z"/><path fill="#fffaff" d="M675.889 59.704h2.228v21.005h-2.228z"/><path fill="#e52526" d="M678.903 56.527h-3.802l.788 3.177h2.227z"/><path fill="#fffaff" d="M681.735 59.704h2.228v21.005h-2.228z"/><path fill="#e52526" d="M684.751 56.527h-3.8l.784 3.177h2.228z"/><path fill="#6692aa" d="M396.791 309.976h129.847v88.439H396.791z"/><path d="M448.731 363.399v-33.283s0-12.08 13.149-12.08c12.811 0 12.811 12.08 12.811 12.08v33.283h-25.96zM426.503 363.475v-17.383s0-6.802 7.408-6.802c7.217 0 7.217 6.802 7.217 6.802v17.383h-14.625zM481.951 363.475v-17.383s0-6.802 7.408-6.802c7.216 0 7.216 6.802 7.216 6.802v17.383h-14.624zM505.643 363.475v-17.383s0-6.802 7.402-6.802c7.218 0 7.218 6.802 7.218 6.802v17.383h-14.62zM403.167 363.475v-17.383s0-6.802 7.406-6.802c7.216 0 7.216 6.802 7.216 6.802v17.383h-14.622z" fill="#adc4d1"/><path fill="#44788c" d="M339.94 318.137h56.851v80.278H339.94z"/><path fill="#6692aa" d="M60.597 296.367H339.94v102.048H60.597z"/><path fill="#fffaff" d="M60.597 282.762H339.94v13.605H60.597zM526.638 282.762h59.425v13.605h-59.425zM396.791 296.367h129.847v13.609H396.791zM339.94 304.532h56.851v13.605H339.94z"/><path fill="#adc4d1" d="M526.638 289.566h59.425v6.8h-59.425zM396.791 303.171h129.847v6.804H396.791zM339.94 311.503h56.851v12.723H339.94zM60.597 292.04H339.94v14.681H60.597zM549.694 356.802v-17.391s0-6.8 7.406-6.8c7.217 0 7.217 6.8 7.217 6.8v17.391h-14.623z"/><path d="M457.324 363.399h8.775v-16.895s0-4.079-4.33-4.079c-4.445 0-4.445 4.079-4.445 4.079v16.895zM552.618 315.076h8.774v8.395h-8.774zM484.877 325.737h8.773v8.389h-8.773zM429.428 325.737h8.774v8.389h-8.774zM406.091 325.737h8.775v8.389h-8.775zM209.511 312.391h3.976v45.131h-3.976z" fill="#fffaff"/><path fill="#fffaff" d="M208.108 357.521h6.783v6.575h-6.783zM208.108 306.722h6.783l-1.404 5.669h-3.976zM228.46 312.391h3.975v45.131h-3.975z"/><path fill="#fffaff" d="M227.056 357.521h6.785v6.575h-6.785zM227.056 306.722h6.785l-1.406 5.669h-3.975zM248.113 312.391h3.976v45.131h-3.976z"/><path fill="#fffaff" d="M246.708 357.521h6.785v6.575h-6.785zM246.708 306.722h6.785l-1.404 5.669h-3.976zM267.414 312.391h3.978v45.131h-3.978z"/><path fill="#fffaff" d="M266.009 357.521h6.786v6.575h-6.786zM266.009 306.722h6.786l-1.403 5.669h-3.978zM287.068 312.391h3.975v45.131h-3.975z"/><path fill="#fffaff" d="M285.664 357.521h6.783v6.575h-6.783zM285.664 306.722h6.783l-1.404 5.669h-3.975zM306.369 312.391h3.975v45.131h-3.975z"/><path fill="#fffaff" d="M304.964 357.521h6.786v6.575h-6.786zM304.964 306.722h6.785l-1.405 5.669h-3.975zM325.669 312.391h3.976v45.131h-3.976z"/><path fill="#fffaff" d="M324.265 357.521h6.784v6.575h-6.784zM324.265 306.722h6.784l-1.404 5.669h-3.976zM345.716 329.895h3.978v41.217h-3.978zM344.271 371.112h6.783v6.575h-6.783zM344.314 324.226h6.782l-1.402 5.669h-3.978zM359.755 329.895h3.976v41.217h-3.976zM358.309 371.112h6.784v6.575h-6.784zM358.35 324.226h6.785l-1.404 5.669h-3.976zM373.44 329.895h3.978v41.217h-3.978zM371.993 371.112h6.784v6.575h-6.784zM372.038 324.226h6.781l-1.401 5.669h-3.978zM387.128 329.895h3.974v41.217h-3.974zM385.68 371.112h6.786v6.575h-6.786zM385.722 324.226h6.784l-1.404 5.669h-3.974zM73.114 312.391h3.977v45.131h-3.977z"/><path fill="#fffaff" d="M71.713 357.521h6.781v6.575h-6.781zM71.713 306.722h6.781l-1.403 5.669h-3.977zM92.064 312.391h3.976v45.131h-3.976z"/><path fill="#fffaff" d="M90.661 357.521h6.784v6.575h-6.784zM90.661 306.722h6.784l-1.405 5.669h-3.976zM111.717 312.391h3.977v45.131h-3.977z"/><path fill="#fffaff" d="M110.313 357.521h6.783v6.575h-6.783zM110.313 306.722h6.783l-1.402 5.669h-3.977zM131.02 312.391h3.974v45.131h-3.974z"/><path fill="#fffaff" d="M129.614 357.521h6.786v6.575h-6.786zM129.614 306.722h6.785l-1.405 5.669h-3.974zM150.671 312.391h3.976v45.131h-3.976z"/><path fill="#fffaff" d="M149.268 357.521h6.782v6.575h-6.782zM149.268 306.722h6.782l-1.403 5.669h-3.976zM169.974 312.391h3.978v45.131h-3.978z"/><path fill="#fffaff" d="M168.569 357.521h6.785v6.575h-6.785zM168.569 306.722h6.785l-1.403 5.669h-3.977zM189.272 312.391h3.978v45.131h-3.978z"/><path fill="#fffaff" d="M187.868 357.521h6.786v6.575h-6.786zM187.868 306.722h6.787l-1.404 5.669h-3.979z"/><path fill="#6692aa" d="M526.638 362.815h59.425v35.6h-59.425z"/><path fill="#215b80" d="M396.791 362.815h129.847v35.6H396.791z"/><path fill="#adc4d1" d="M548.554 370.013h16.406v28.402h-16.406z"/><path fill="#18476c" d="M552.618 375.69h8.277v14.326h-8.277z"/><path fill="#adc4d1" d="M481.057 370.013h16.406v28.402h-16.406z"/><path fill="#18476c" d="M485.123 375.69h8.274v14.326h-8.274z"/><path fill="#adc4d1" d="M453.51 370.013h16.406v28.402H453.51z"/><path fill="#18476c" d="M457.573 375.69h8.275v14.326h-8.275z"/><path fill="#adc4d1" d="M425.612 370.013h16.408v28.402h-16.408z"/><path fill="#18476c" d="M429.677 375.69h8.275v14.326h-8.275z"/><path fill="#adc4d1" d="M402.274 370.013h16.409v28.402h-16.409z"/><path fill="#18476c" d="M406.34 375.69h8.275v14.326h-8.275z"/><path fill="#fffaff" d="M552.866 342.44h8.275v14.326h-8.275zM485.123 349.072h8.277V363.4h-8.277zM429.673 349.149h8.279v14.326h-8.279zM406.34 349.072h8.275V363.4h-8.275zM508.566 325.737h8.772v8.389h-8.772z"/><path fill="#adc4d1" d="M504.747 370.013h16.409v28.402h-16.409z"/><path fill="#18476c" d="M508.811 375.69h8.276v14.326h-8.276z"/><path fill="#fffaff" d="M508.811 349.072h8.276V363.4h-8.276z"/><ellipse cx="461.714" cy="329.394" rx="3.772" ry="3.656" fill="#e52526"/><path fill="#215b80" d="M60.597 364.096H339.94v34.319H60.597zM339.94 377.687h56.851v20.728H339.94z"/><path d="M344.485 394.887h5.552v-10.566s0-2.553-2.739-2.553c-2.813 0-2.813 2.553-2.813 2.553v10.566zM358.991 394.887h5.55v-10.566s0-2.553-2.74-2.553c-2.81 0-2.81 2.553-2.81 2.553v10.566zM373.125 394.887h5.55v-10.566s0-2.553-2.74-2.553c-2.81 0-2.81 2.553-2.81 2.553v10.566zM386.669 394.887h5.548v-10.566s0-2.553-2.739-2.553c-2.809 0-2.809 2.553-2.809 2.553v10.566zM67.91 391.633h8.525v-16.416s0-3.967-4.206-3.967c-4.319 0-4.319 3.967-4.319 3.967v16.416zM89.053 391.633h8.525v-16.416s0-3.967-4.208-3.967c-4.317 0-4.317 3.967-4.317 3.967v16.416zM111.334 391.633h8.525v-16.416s0-3.967-4.208-3.967c-4.317 0-4.317 3.967-4.317 3.967v16.416zM133.045 391.633h8.527v-16.416s0-3.967-4.209-3.967c-4.318 0-4.318 3.967-4.318 3.967v16.416zM153.847 391.633h8.521v-16.416s0-3.967-4.205-3.967c-4.317 0-4.317 3.967-4.317 3.967v16.416zM174.988 391.633h8.526v-16.416s0-3.967-4.206-3.967c-4.32 0-4.32 3.967-4.32 3.967v16.416zM197.27 391.633h8.527v-16.416s0-3.967-4.208-3.967c-4.319 0-4.319 3.967-4.319 3.967v16.416zM218.981 391.633h8.525v-16.416s0-3.967-4.205-3.967c-4.32 0-4.32 3.967-4.32 3.967v16.416zM240.466 391.633h8.524v-16.416s0-3.967-4.208-3.967c-4.316 0-4.316 3.967-4.316 3.967v16.416zM261.607 391.633h8.527v-16.416s0-3.967-4.207-3.967c-4.32 0-4.32 3.967-4.32 3.967v16.416zM283.889 391.633h8.527v-16.416s0-3.967-4.207-3.967c-4.32 0-4.32 3.967-4.32 3.967v16.416zM305.599 391.633h8.527v-16.416s0-3.967-4.208-3.967c-4.319 0-4.319 3.967-4.319 3.967v16.416zM324.981 391.633h8.525v-16.416s0-3.967-4.206-3.967c-4.319 0-4.319 3.967-4.319 3.967v16.416z" fill="#18476c"/><path d="M508.566 346.762v-.412s0-4.082 4.444-4.082c4.328 0 4.328 4.082 4.328 4.082v.412h-8.772zM552.618 340.89v-.41s0-4.087 4.445-4.087c4.328 0 4.328 4.087 4.328 4.087v.41h-8.773zM484.877 346.762v-.412s0-4.082 4.444-4.082c4.329 0 4.329 4.082 4.329 4.082v.412h-8.773zM429.428 346.841v-.414s0-4.079 4.445-4.079c4.329 0 4.329 4.079 4.329 4.079v.414h-8.774zM464.989 280.044h32.521v9.522h-32.521zM406.091 346.762v-.412s0-4.082 4.445-4.082c4.33 0 4.33 4.082 4.33 4.082v.412h-8.775z" fill="#fffaff"/><path fill="#6692aa" d="M491.776 281.742h3.746v7.824h-3.746zM485.517 281.742h3.747v7.824h-3.747zM479.184 281.742h3.746v7.824h-3.746zM472.821 281.742h3.746v7.824h-3.746zM466.774 281.742h3.744v7.824h-3.744zM526.638 296.367h59.425v9.073h-59.425z"/><path d="M434.547 296.367c13.998-5.383 29.59-8.411 46.045-8.411 16.455 0 32.047 3.029 46.045 8.411h-92.09z" fill="#e52526"/><path fill="#6692aa" d="M464.259 278.084h33.98v1.96h-33.98z"/><path fill="#adc4d1" d="M464.259 276.981h33.98v1.103h-33.98z"/></g><path opacity=".9" fill="#123851" d="M205.797 289.566l58.115.029 84.685 108.82H173.228z"/><path fill="#ab212f" d="M1474.113 282.077l62.114.033 50.22 64.528v51.777h-147.14z"/><g><path fill="#18476c" d="M45.842 310.008h216.009v74.424H45.842z"/><path fill="#adc4d1" d="M45.842 289.585h216.009v20.424H45.842z"/><path fill="#fffaff" d="M42.834 289.585h221.098v4.28H42.834z"/><path fill="#adc4d1" d="M65.04 275.482h177.616v14.102H65.04z"/><path fill="#fffaff" d="M65.04 271.448h177.616v4.034H65.04z"/><path fill="#6692aa" d="M77.064 263.827h153.567v7.621H77.064z"/><path fill="#fffaff" d="M73.827 260.913h160.038v2.915H73.827z"/><path fill="#adc4d1" d="M78.915 257.998h149.861v2.915H78.915z"/><path fill="#fffaff" d="M82.844 255.085h142.004v2.913H82.844z"/><path fill="#adc4d1" d="M86.084 252.168h135.523v2.917H86.084z"/><path fill="#fffaff" d="M89.089 249.256h129.515v2.913H89.089z"/><path fill="#adc4d1" d="M45.842 380.955h216.009v2.915H45.842z"/><path fill="#fffaff" d="M52.708 378.042h202.276v2.913H52.708z"/><path fill="#adc4d1" d="M58.018 375.128h191.661v2.915H58.018z"/><path fill="#fffaff" d="M62.387 372.215h182.918v2.913H62.387z"/><path fill="#adc4d1" d="M66.446 369.298H241.25v2.917H66.446z"/><path fill="#fffaff" d="M14.852 395.525h277.989v2.917H14.852z"/><path fill="#adc4d1" d="M23.69 392.612h260.313v2.913H23.69z"/><path fill="#fffaff" d="M30.516 389.699h246.66v2.913H30.516z"/><path fill="#adc4d1" d="M36.144 386.784H271.55v2.915H36.144z"/><path fill="#fffaff" d="M41.366 383.87h224.962v2.915H41.366z"/><path d="M214.479 249.256c-14.123-17.395-36.025-28.581-60.631-28.581-24.609 0-46.509 11.186-60.633 28.581h121.264zM72.902 310.008h51.071v59.29H72.902zM183.409 310.008h51.381v59.29h-51.381z" fill="#6692aa"/><path fill="#cfdbe4" d="M72.902 310.008h7.631v59.29h-7.631zM95.066 310.008h7.631v59.29h-7.631zM116.343 310.008h7.631v59.29h-7.631zM138.311 310.008h7.633v59.29h-7.633zM161.67 310.008h7.632v59.29h-7.632z"/><path fill="#6692aa" d="M59.487 310.008h6.716v59.29h-6.716zM51.162 310.008h4.905v59.29h-4.905zM45.842 310.008h3.47v59.29h-3.47z"/><path fill="#cfdbe4" d="M183.409 310.008h7.635v59.29h-7.635zM204.918 310.008h7.634v59.29h-7.634zM227.159 310.008h7.632v59.29h-7.632z"/><path fill="#6692aa" d="M241.25 310.008h6.713v59.29h-6.713zM251.385 310.008h4.906v59.29h-4.906zM258.38 310.008h3.47v59.29h-3.47z"/><path fill="#e52526" d="M153.847 268.312l-85.572 21.273h171.141z"/></g><g><path fill="#ab212f" d="M1320.869 200.392V128.22l4.449 72.172z"/><path fill="#e52526" d="M1320.869 200.392h-4.447l4.447-72.172z"/><path fill="#ab212f" d="M1309.226 167.062V77.886l5.51 89.176z"/><path fill="#e52526" d="M1309.226 167.062h-5.509l5.509-89.176z"/><path fill="#ab212f" d="M1251.773 167.062V77.886l5.511 89.176z"/><path fill="#e52526" d="M1251.773 167.062h-5.511l5.511-89.176zM1461.106 200.422V128.22l-4.446 72.202z"/><path fill="#ab212f" d="M1461.106 200.422h4.453l-4.453-72.202z"/><path fill="#e52526" d="M1472.753 167.062V77.886l-5.507 89.176z"/><path fill="#ab212f" d="M1472.753 167.062h5.505l-5.505-89.176z"/><path fill="#e52526" d="M1530.207 167.062V77.886l-5.51 89.176z"/><path fill="#ab212f" d="M1530.207 167.062h5.509l-5.509-89.176z"/><path fill="#84aaba" d="M1333.532 249.493h114.911v100.939h-114.911z"/><path fill="#fffaff" d="M1342.767 244.023h1.926v106.409h-1.926zM1349.182 244.023h1.922v106.409h-1.922zM1355.209 244.023h1.924v106.409h-1.924zM1361.108 244.023h1.928v106.409h-1.928zM1367.134 244.023h1.928v106.409h-1.928zM1373.033 244.023h1.924v106.409h-1.924zM1378.807 244.023h1.924v106.409h-1.924zM1384.963 244.023h1.924v106.409h-1.924zM1390.403 244.023h1.922v106.409h-1.922zM1396.686 244.023h1.924v106.409h-1.924zM1402.327 244.023h1.926v106.409h-1.926zM1408.1 244.023h1.926v106.409h-1.926zM1414.255 244.023h1.924v106.409h-1.924zM1420.283 244.023h1.924v106.409h-1.924zM1426.184 244.023h1.924v106.409h-1.924zM1431.696 244.023h1.926v106.409h-1.926zM1437.727 244.023h1.924v106.409h-1.924z"/><path fill="#6692aa" d="M1308.29 178.327h7.843v-11.435l-7.843-.023z"/><path fill="#84aaba" d="M1308.29 178.327h-5.587v-11.435l5.587-.023z"/><path fill="#18476c" d="M1307.604 227.615h12.706v-49.593l-12.706-.03z"/><path fill="#6692aa" d="M1320.243 225.377h6.433v-25.105l-6.433-.049zM1307.604 227.615h-9.048v-49.593l9.048-.03zM1250.836 166.89h7.844v11.436h-7.844z"/><path fill="#84aaba" d="M1245.25 166.89h5.587v11.436h-5.587z"/><path fill="#18476c" d="M1250.153 227.615h12.699v-49.593l-12.699-.02z"/><path fill="#6692aa" d="M1250.153 227.615h-9.05v-49.593l9.05-.02z"/><path fill="#84aaba" d="M1473.692 178.327h-7.85v-11.435l7.85-.023z"/><path fill="#6692aa" d="M1473.692 178.327h5.585v-11.435l-5.585-.023z"/><path fill="#6692aa" d="M1474.375 227.615h-12.701v-49.593l12.701-.03z"/><path fill="#84aaba" d="M1461.735 225.377h-6.431v-25.105l6.431.026z"/><path fill="#18476c" d="M1474.375 227.615h9.049v-49.593l-9.049-.03z"/><path fill="#84aaba" d="M1531.141 178.327h-7.839v-11.435l7.839-.023z"/><path fill="#6692aa" d="M1531.141 178.327h5.589v-11.435l-5.589-.023z"/><path fill="#6692aa" d="M1531.829 227.615h-12.704v-49.593l12.704.033z"/><path fill="#18476c" d="M1531.829 227.615h9.05v-49.593l-9.05.033z"/><path fill="#84aaba" d="M1304.174 241.135h-11.901V227.25l11.901-.028zM1246.717 243.438h-11.901V227.25l11.901-.008zM1477.81 241.058h-16.704V227.25l16.704-.028zM1535.263 243.581h-16.699V227.25l16.699-.028z"/><path fill="#6692aa" d="M1304.174 241.135h16.695V227.25l-16.695-.028zM1246.717 244.182h16.701V227.25l-16.701-.008zM1477.81 241.058h11.898V227.25l-11.898-.028zM1535.263 243.581h11.899V227.25l-11.899-.028z"/><path fill="#18476c" d="M1320.243 251.892h10.605V210.74l-10.605-.02z"/><path fill="#6692aa" d="M1461.735 251.892h-10.603V210.74l10.603-.032z"/><path fill="#18476c" d="M1245.3 398.415h30.781V242.792l-30.781-.016zM1479.222 240.668h21.93v118.218h-21.93zM1536.678 398.415h21.929V242.792l-21.929-.203z"/><path fill="#b0cede" d="M1280.825 240.668h21.93v118.218h-21.93zM1245.3 393.721h-21.932v-151.18l21.932.235zM1536.678 393.721h-30.777v-151.18l30.777.048zM1448.443 240.668h30.779v118.218h-30.779z"/><path fill="#18476c" d="M1302.755 240.668h30.777v118.218h-30.777z"/><path fill="#ab212f" d="M1313.013 350.432h155.952v8.454h-155.952z"/><path fill="#adc4d1" d="M1325.458 358.886h130.81v39.529h-130.81z"/><path fill="#e52526" d="M1356.108 350.432h69.767v8.454h-69.767z"/><path fill="#6692aa" d="M1223.368 358.886h102.09v39.529h-102.09zM1456.268 358.886h102.34v39.529h-102.34z"/><path fill="#ab212f" d="M1313.013 361.992h155.952v8.456h-155.952z"/><path fill="#e52526" d="M1356.108 361.992h69.767v8.456h-69.767z"/><path fill="#fffaff" d="M1363.543 352.919h2.697v45.496h-2.697zM1372.78 352.919h2.693v45.496h-2.693zM1382.013 352.919h2.695v45.496h-2.695zM1391.367 352.919h2.689v45.496h-2.689zM1399.711 352.919h2.693v45.496h-2.693zM1408.563 352.919h2.691v45.496h-2.691zM1417.792 352.919h2.691v45.496h-2.691z"/><path fill="#18476c" d="M1514.193 253.627h4.371v105.259h-4.371z"/><path fill="#84aaba" d="M1509.821 252.601h4.371v106.285h-4.371z"/><path fill="#18476c" d="M1505.523 251.482h4.369v107.404h-4.369z"/><path fill="#84aaba" d="M1501.152 250.551h4.371v108.335h-4.371z"/><path fill="#b0cede" d="M1263.418 253.627h4.367v105.259h-4.367z"/><path fill="#84aaba" d="M1267.785 252.601h4.371v106.285h-4.371z"/><path fill="#b0cede" d="M1272.087 251.482h4.369v107.404h-4.369z"/><path fill="#84aaba" d="M1276.456 250.551h4.369v108.335h-4.369z"/></g><g><path d="M1498.109 379.324c-9.73.018-5.658-51.381 1.861-52.299 5.886-.715 11.54 1.93 14.864 7.684 7.389 12.815 13.858 44.562-16.725 44.615z" fill="#6790a8"/><path d="M1498.109 379.324c-9.73.018-24.275-10.322-17.399-32.519 3.854-12.455 11.741-18.862 19.26-19.78-.017 10.79-.017 35.099-.143 52.266-.561.025-1.133.033-1.718.033z" fill="#b0cede"/><path fill="#fffaff" d="M1497.768 398.415l.457-25.802-3.892-9.161 4.005 6.774 1.632-24.201.895 26.588 4.457-5.829-4.118 8.88.342 22.751z"/></g><g><path d="M1200.324 377.138c-10.836.024-6.301-57.267 2.079-58.285 6.561-.798 12.858 2.151 16.561 8.561 8.241 14.284 15.441 49.659-18.64 49.724z" fill="#18466b"/><path d="M1200.324 377.138c-10.836.024-27.045-11.505-19.39-36.238 4.294-13.879 13.089-21.029 21.469-22.042-.017 12.022-.017 39.11-.161 58.244-.623.028-1.263.036-1.918.036z" fill="#6790a8"/><path fill="#fffaff" d="M1199.948 398.415l.51-28.76-4.34-10.204 4.468 7.548 1.816-26.966.996 29.622 4.97-6.489-4.595 9.894.383 25.355z"/></g><g><path d="M21.374 377.138c-10.834.024-6.299-57.267 2.081-58.285 6.558-.798 12.856 2.151 16.559 8.561 8.242 14.284 15.445 49.659-18.64 49.724z" fill="#18466b"/><path d="M21.374 377.138c-10.834.025-27.044-11.504-19.39-36.238 4.295-13.879 13.091-21.029 21.471-22.042-.019 12.022-.019 39.11-.162 58.244-.624.028-1.262.036-1.919.036z" fill="#6790a8"/><path fill="#fffaff" d="M21 398.415l.511-28.76-4.342-10.204 4.469 7.548 1.817-26.966.994 29.622 4.971-6.489-4.596 9.894.384 25.355z"/></g><g><path d="M1281.936 383.736c-7.477.016-4.348-39.51 1.431-40.213 4.526-.553 8.879 1.479 11.431 5.907 5.686 9.85 10.663 34.257-12.862 34.306z" fill="#215b80"/><path d="M1281.936 383.736c-7.477.016-18.665-7.942-13.378-25.006 2.963-9.579 9.03-14.505 14.809-15.207-.01 8.291-.01 26.982-.105 40.181-.433.023-.875.032-1.326.032z" fill="#84aaba"/><path fill="#123851" d="M1281.676 398.415l.352-19.847-2.992-7.036 3.078 5.202 1.253-18.605.688 20.439 3.432-4.478-3.17 6.834.266 17.491z"/></g><g><path d="M1049.271 383.784c-7.456.016-4.336-39.372 1.425-40.073 4.51-.551 8.845 1.477 11.389 5.884 5.667 9.823 10.625 34.145-12.814 34.189z" fill="#215b80"/><path d="M1049.271 383.784c-7.456.016-18.6-7.913-13.332-24.916 2.951-9.546 8.996-14.456 14.757-15.157-.013 8.265-.013 26.889-.107 40.045a25.99 25.99 0 0 1-1.318.028z" fill="#84aaba"/><path fill="#123851" d="M1049.009 398.415l.35-19.778-2.98-7.011 3.066 5.183 1.251-18.54.683 20.368 3.42-4.464-3.16 6.812.268 17.43z"/></g><g><path d="M1523.606 387.132c-5.748.008-3.344-30.37 1.1-30.911 3.479-.422 6.823 1.142 8.785 4.538 4.371 7.576 8.189 26.336-9.885 26.373z" fill="#215b80"/><path d="M1523.606 387.132c-5.748.008-14.346-6.102-10.283-19.219 2.276-7.361 6.938-11.151 11.383-11.691-.008 6.378-.008 20.742-.082 30.886-.335.02-.668.024-1.018.024z" fill="#84aaba"/><path fill="#123851" d="M1523.405 398.415l.272-15.256-2.299-5.403 2.366 3.997.962-14.305.53 15.711 2.634-3.437-2.433 5.246.204 13.447z"/></g><g><path d="M209.743 384.755c-6.961.012-4.049-36.764 1.333-37.418 4.211-.512 8.258 1.381 10.633 5.492 5.288 9.173 9.914 31.882-11.966 31.926z" fill="#215b80"/><path d="M209.743 384.755c-6.961.012-17.367-7.385-12.448-23.265 2.757-8.913 8.401-13.499 13.781-14.153-.012 7.72-.012 25.109-.102 37.39-.406.022-.811.028-1.231.028z" fill="#84aaba"/><path fill="#123851" d="M209.499 398.415l.326-18.467-2.784-6.543 2.865 4.838 1.169-17.313.637 19.018 3.193-4.162-2.948 6.353.246 16.276z"/></g><g><path d="M584.738 384.589c-7.047.008-4.097-37.227 1.351-37.896 4.262-.514 8.362 1.404 10.764 5.569 5.356 9.285 10.042 32.282-12.115 32.327z" fill="#18466b"/><path d="M584.738 384.589c-7.047.008-17.584-7.483-12.605-23.566 2.792-9.016 8.508-13.662 13.955-14.326-.013 7.81-.013 25.42-.104 37.859-.405.016-.819.033-1.246.033z" fill="#adc4d1"/><path fill="#fffaff" d="M584.491 398.415l.333-18.697-2.821-6.628 2.904 4.906 1.182-17.534.647 19.256 3.233-4.217-2.986 6.431.245 16.483z"/></g><g><path d="M812.69 387.018c-5.809.01-3.378-30.677 1.115-31.227 3.512-.431 6.886 1.154 8.873 4.59 4.41 7.648 8.27 26.6-9.988 26.637z" fill="#6790a8"/><path d="M812.69 387.018c-5.809.01-14.49-6.163-10.388-19.418 2.301-7.436 7.014-11.259 11.502-11.809-.011 6.445-.011 20.951-.088 31.207-.333.012-.676.02-1.026.02z" fill="#b0cede"/><path fill="#fffaff" d="M812.486 398.415l.277-15.407-2.326-5.468 2.393 4.043.974-14.446.531 15.871 2.663-3.481-2.46 5.305.207 13.583z"/></g><g><path d="M1585.344 387.018c-5.811.01-3.38-30.677 1.115-31.227 3.51-.431 6.884 1.154 8.868 4.59 4.414 7.648 8.276 26.6-9.983 26.637z" fill="#6790a8"/><path d="M1585.344 387.018c-5.811.01-14.493-6.163-10.387-19.418 2.297-7.436 7.012-11.259 11.502-11.809-.01 6.445-.01 20.951-.088 31.207-.333.012-.679.02-1.027.02z" fill="#b0cede"/><path fill="#fffaff" d="M1585.141 398.415l.275-15.407-2.328-5.468 2.395 4.043.976-14.446.528 15.871 2.666-3.481-2.462 5.305.205 13.583z"/></g><g><path d="M303.148 381.103c-8.862.016-5.156-46.829 1.698-47.667 5.36-.652 10.515 1.755 13.546 6.999 6.735 11.681 12.63 40.615-15.244 40.668z" fill="#18466b"/><path d="M303.148 381.103c-8.862.016-22.124-9.408-15.861-29.639 3.511-11.35 10.705-17.19 17.56-18.029-.018 9.835-.018 31.985-.132 47.635-.511.025-1.035.033-1.567.033z" fill="#adc4d1"/><path fill="#fffaff" d="M302.836 398.502l.421-23.517-3.551-8.344 3.654 6.173 1.486-22.061.812 24.232 4.068-5.311-3.756 8.094.312 20.734z"/></g><g><path d="M766.853 381.176c-8.862.016-5.155-46.829 1.701-47.668 5.36-.654 10.516 1.755 13.547 6.999 6.734 11.68 12.628 40.617-15.248 40.669z" fill="#18466b"/><path d="M766.853 381.176c-8.862.016-22.123-9.409-15.859-29.639 3.512-11.35 10.704-17.19 17.56-18.029-.017 9.835-.017 31.987-.132 47.635-.51.025-1.036.033-1.569.033z" fill="#adc4d1"/><path fill="#fffaff" d="M766.542 398.577l.422-23.518-3.55-8.345 3.651 6.175 1.488-22.058.812 24.228 4.067-5.312-3.755 8.092.313 20.738z"/></g></svg>